<?xml version="1.0" encoding="utf-8"?>
<!-- Generator: Adobe Illustrator 27.4.0, SVG Export Plug-In . SVG Version: 6.00 Build 0)  -->
<svg version="1.1" id="Capa_1" xmlns="http://www.w3.org/2000/svg" xmlns:xlink="http://www.w3.org/1999/xlink" x="0px" y="0px"
	 viewBox="0 0 540 540" style="enable-background:new 0 0 540 540;" xml:space="preserve">
<style type="text/css">
	.st0{fill:none;stroke:#000000;stroke-width:17.0115;stroke-linecap:round;stroke-miterlimit:10;}
	.st1{fill:#020203;}
	.st2{fill:none;stroke:#000000;stroke-width:18.7803;stroke-linecap:round;stroke-miterlimit:10;}
	.st3{fill:none;stroke:#000000;stroke-width:28.9902;stroke-linecap:round;stroke-miterlimit:10;}
</style>
<g>
	<g>
		<path d="M326.1,211.8c-13.4,39.3-61.8,53.7-94,27.2c-29-24.6-27.2-69.7,4.8-90.8c8.4-5.4,18.2-8.5,28.1-8.8c1.7,0,3.1,1.3,3.2,3
			c0,1.6-1.2,3-2.8,3.2c-21.2,1.6-39.5,18.6-42.6,39.5c-1.6,10.7,0.5,22.1,6.4,31.2c0,0,1.7,2.6,1.7,2.6c0.9,1.2,2,2.4,2.9,3.6
			c0.7,0.8,2.5,2.5,3.2,3.2c1.5,1.3,3.1,2.7,4.8,3.7c0,0,2.5,1.7,2.5,1.7l2.7,1.4c16.1,8.2,36.2,5.5,49.4-7
			c5.6-5.3,9.6-12.1,11.6-19.4c1.4-5.1,6.7-8.1,11.8-6.7C324.9,200.9,327.9,206.7,326.1,211.8L326.1,211.8z"/>
		<path d="M360,210.5c-7.8,43.7-48.8,77-93.2,74.9c-43.7-0.9-82-35.7-86.8-79.1c-8.5-68.2,61.7-120.3,124.1-91.4
			c14,6.5,26.2,16.6,34.8,29.3c2.9,4.2,5.5,8.6,7.6,13.2c0.7,1.5,0,3.3-1.5,4.1c-1.5,0.7-3.3,0-4-1.4c-2.1-4.2-4.6-8.3-7.4-12.1
			c-49.4-65.1-151.5-24.7-141.1,56.7c5,36.4,37.9,65.1,74.6,64.9c26.7,0.4,52.5-14.7,65.4-37.8c4.3-7.6,7.2-16,8.6-24.6
			C343.8,194.5,361.9,197.8,360,210.5L360,210.5z"/>
		<path d="M389.2,209.9c-11.4,81-97.8,128-171.6,92.3c-55.7-26.1-82.1-95.3-57.9-151.8c22.4-56.4,89-86.7,146.1-66.2
			c41.7,13.8,73.2,53.3,77.5,96.9c0.3,4.2-5.7,4.8-6.3,0.7c-4.8-40.9-34.7-77.1-73.9-89.4c-52.4-17.8-112.9,10.6-132.4,62.4
			c-20.6,50.6,3.6,111.6,53.4,133.9c36,17,80.2,11.3,110.5-14.5c15-12.4,26.1-29.3,32-47.8c1.9-6.2,3.3-12.6,4.1-19
			c0.7-5.1,5.4-8.8,10.5-8.1C386.3,199.9,390,204.8,389.2,209.9L389.2,209.9z"/>
	</g>
	<g>
		<path class="st1" d="M139,382.5v47.9h-11l-1-15.2c-6.2,10.3-16.7,16.7-31.8,16.7c-26.3,0-45.7-20.2-45.7-44.8
			c0-27.4,20.6-46.6,46.3-46.6c19.1,0,37.2,10.5,42.4,31.5h-14.9c-4.5-13.6-16.9-18.6-27.3-18.6c-18.6,0-32.4,13.6-32.4,33.6
			c0,17,12.7,31.7,31.5,31.7c15.6,0,25.6-9.9,28.7-23.4H94.1v-13H139z"/>
		<path class="st1" d="M216.6,403.9h-47.9c1.3,9.2,7.1,16.2,18.6,16.2c6,0,10.5-1.8,13-5.7H215c-3.9,11-14.7,17.5-27.9,17.5
			c-19.2,0-32.2-13.9-32.2-32.1c0-18,12.8-32.1,31.4-32.1C206.6,367.8,219.2,383.3,216.6,403.9z M169,394.5h34.3
			c-0.8-10-7.3-15.3-16.7-15.3C176.4,379.2,170.5,386,169,394.5z"/>
		<path class="st1" d="M291.1,396.4v34h-13.5v-33.2c0-11.2-6-17.1-15.8-17.1c-5.8,0-12.2,3.2-17,9.2v41.1h-13.5v-61h13.5v5.5
			c5.3-4.5,11.9-7,19.7-7C280.3,367.8,291.1,378.7,291.1,396.4z"/>
		<path class="st1" d="M366.8,403.9h-47.9c1.3,9.2,7.1,16.2,18.6,16.2c6,0,10.5-1.8,13-5.7h14.8c-3.9,11-14.7,17.5-27.9,17.5
			c-19.2,0-32.2-13.9-32.2-32.1c0-18,12.8-32.1,31.4-32.1C356.8,367.8,369.4,383.3,366.8,403.9z M319.1,394.5h34.3
			c-0.8-10-7.3-15.3-16.7-15.3C326.5,379.2,320.7,386,319.1,394.5z"/>
		<path class="st1" d="M417.5,368.1v12.7c-9.7,0.4-17.1,4-22.6,11.2v38.4h-13.5v-61h13.5v8.3C400.5,371.6,408.2,368.1,417.5,368.1z"
			/>
		<path class="st1" d="M488.9,369.4v61h-13.4v-4.8c-5.2,4-11.8,6.4-19.6,6.4c-17.1,0-30.9-14.3-30.9-32.1s13.8-32.1,30.9-32.1
			c7.8,0,14.4,2.3,19.6,6.4v-4.8H488.9z M475.5,410.9v-22.1c-4.5-6.5-10.9-8.8-17.7-8.8c-11.2,0-19.3,9-19.3,19.9
			s8.2,19.9,19.3,19.9C464.6,419.7,471,417.4,475.5,410.9z"/>
	</g>
</g>
</svg>
