<?xml version="1.0" encoding="utf-8"?>
<!-- Generator: Adobe Illustrator 27.4.0, SVG Export Plug-In . SVG Version: 6.00 Build 0)  -->
<svg version="1.1" id="Capa_1" xmlns="http://www.w3.org/2000/svg" xmlns:xlink="http://www.w3.org/1999/xlink" x="0px" y="0px"
	 viewBox="0 0 540 540" style="enable-background:new 0 0 540 540;" xml:space="preserve">
<style type="text/css">
	.st0{fill:none;stroke:#000000;stroke-width:17.0115;stroke-linecap:round;stroke-miterlimit:10;}
	.st1{fill:#020203;}
	.st2{fill:none;stroke:#000000;stroke-width:18.7803;stroke-linecap:round;stroke-miterlimit:10;}
	.st3{fill:none;stroke:#000000;stroke-width:28.9902;stroke-linecap:round;stroke-miterlimit:10;}
</style>
<g>
	<path d="M356.6,294.4c-20.7,60.7-95.5,82.9-145.1,42c-44.8-37.9-41.9-107.6,7.4-140.2c12.9-8.4,28.1-13.2,43.3-13.6
		c2.6-0.1,4.8,2,4.9,4.6c0.1,2.5-1.9,4.7-4.3,4.9c-32.7,2.5-60.9,28.8-65.7,61c-2.5,16.6,0.8,34.1,9.9,48.2c0,0,2.6,4,2.6,4
		c1.4,1.8,3,3.7,4.4,5.5c1,1.2,3.8,3.8,5,5c2.4,1.9,4.8,4.1,7.4,5.8c0,0,3.9,2.6,3.9,2.6l4.1,2.2c24.8,12.7,55.9,8.4,76.2-10.8
		c8.7-8.1,14.9-18.6,18-29.9c2.2-7.9,10.3-12.5,18.2-10.3C354.8,277.4,359.4,286.3,356.6,294.4L356.6,294.4z"/>
	<path d="M408.9,292.3c-12,67.5-75.3,118.8-143.8,115.7c-67.4-1.4-126.6-55.1-134-122c-13.2-105.2,95.3-185.7,191.6-141.1
		c21.5,10,40.4,25.6,53.8,45.2c4.5,6.4,8.4,13.3,11.7,20.4c1.1,2.4,0.1,5.2-2.3,6.3c-2.3,1.1-5.1,0.1-6.2-2.2
		c-3.2-6.5-7-12.8-11.4-18.6C292,95.3,134.5,157.6,150.4,283.3c7.7,56.2,58.5,100.6,115.2,100.1c41.1,0.6,81-22.6,100.9-58.4
		c6.6-11.8,11.1-24.7,13.3-38C383.9,267.6,411.8,272.6,408.9,292.3L408.9,292.3z"/>
	<path d="M454,291.4c-17.6,125-151,197.5-264.9,142.4c-86-40.4-126.8-147.1-89.4-234.3c34.6-87,137.4-133.8,225.5-102.2
		c64.4,21.4,113,82.3,119.6,149.6c0.5,6.5-8.8,7.4-9.8,1.1c-7.5-63.2-53.6-119-114.1-138c-80.9-27.4-174.3,16.3-204.3,96.3
		c-31.8,78,5.5,172.3,82.4,206.7c55.6,26.2,123.8,17.4,170.5-22.4c23.1-19.2,40.3-45.2,49.4-73.8c3-9.6,5.1-19.5,6.4-29.4
		c1-7.9,8.3-13.5,16.2-12.5C449.6,276,455.2,283.4,454,291.4L454,291.4z"/>
</g>
</svg>
