<svg xmlns="http://www.w3.org/2000/svg" xmlns:xlink="http://www.w3.org/1999/xlink" viewBox="0 0 1997 764" width="340" height="340" preserveAspectRatio="xMidYMid meet" style="width: 100%; height: 100%; transform: translate3d(0px, 0px, 0px); content-visibility: visible;"><defs><clipPath id="__lottie_element_850"><rect width="1997" height="764" x="0" y="0"/></clipPath><clipPath id="__lottie_element_903"><path d="M0,0 L1997,0 L1997,764 L0,764z"/></clipPath><g id="__lottie_element_907"/><filter id="__lottie_element_916" filterUnits="objectBoundingBox" x="0%" y="0%" width="100%" height="100%"><feComponentTransfer in="SourceGraphic"><feFuncA type="table" tableValues="1.0 0.0"/></feComponentTransfer></filter><mask id="__lottie_element_907_2" mask-type="alpha"><g filter="url(#__lottie_element_916)"><rect width="1997" height="764" x="0" y="0" fill="#ffffff" opacity="0"/><use xmlns:ns1="http://www.w3.org/1999/xlink" ns1:href="#__lottie_element_907"/></g></mask><g id="__lottie_element_932"/><g id="__lottie_element_939"><g style="display: none;"><path/><g><path stroke-linecap="butt" stroke-linejoin="miter" fill-opacity="0" stroke-miterlimit="4"/></g></g></g><filter id="__lottie_element_944" filterUnits="objectBoundingBox" x="0%" y="0%" width="100%" height="100%"><feComponentTransfer in="SourceGraphic"><feFuncA type="table" tableValues="1.0 0.0"/></feComponentTransfer></filter><mask id="__lottie_element_932_2" mask-type="alpha"><g filter="url(#__lottie_element_944)"><rect width="1997" height="764" x="0" y="0" fill="#ffffff" opacity="0"/><use xmlns:ns2="http://www.w3.org/1999/xlink" ns2:href="#__lottie_element_932"/></g></mask><mask id="__lottie_element_939_1" mask-type="alpha"><use xmlns:ns3="http://www.w3.org/1999/xlink" ns3:href="#__lottie_element_939"/></mask><clipPath id="__lottie_element_946"><path d="M0,0 L1997,0 L1997,764 L0,764z"/></clipPath><g id="__lottie_element_950"/><filter id="__lottie_element_959" filterUnits="objectBoundingBox" x="0%" y="0%" width="100%" height="100%"><feComponentTransfer in="SourceGraphic"><feFuncA type="table" tableValues="1.0 0.0"/></feComponentTransfer></filter><mask id="__lottie_element_950_2" mask-type="alpha"><g filter="url(#__lottie_element_959)"><rect width="1997" height="764" x="0" y="0" fill="#ffffff" opacity="0"/><use xmlns:ns4="http://www.w3.org/1999/xlink" ns4:href="#__lottie_element_950"/></g></mask><g id="__lottie_element_975"/><g id="__lottie_element_982"><use href="#__lottie_element_1130"/></g><filter id="__lottie_element_987" filterUnits="objectBoundingBox" x="0%" y="0%" width="100%" height="100%"><feComponentTransfer in="SourceGraphic"><feFuncA type="table" tableValues="1.0 0.0"/></feComponentTransfer></filter><mask id="__lottie_element_975_2" mask-type="alpha"><g filter="url(#__lottie_element_987)"><rect width="1997" height="764" x="0" y="0" fill="#ffffff" opacity="0"/><use xmlns:ns5="http://www.w3.org/1999/xlink" ns5:href="#__lottie_element_975"/></g></mask><mask id="__lottie_element_982_1" mask-type="alpha"><use xmlns:ns6="http://www.w3.org/1999/xlink" ns6:href="#__lottie_element_982"/></mask><filter id="__lottie_element_1024" x="-100%" y="-100%" width="300%" height="300%"><feGaussianBlur result="filter_result_0" stdDeviation="9 9" edgeMode="duplicate"/></filter><filter id="__lottie_element_1027" x="-100%" y="-100%" width="300%" height="300%"><feGaussianBlur result="filter_result_0" stdDeviation="12 12" edgeMode="duplicate"/></filter><filter id="__lottie_element_1087" x="-100%" y="-100%" width="300%" height="300%"><feGaussianBlur result="filter_result_0" stdDeviation="6 6" edgeMode="duplicate"/></filter><filter id="__lottie_element_1096" x="-100%" y="-100%" width="300%" height="300%"><feGaussianBlur result="filter_result_0" stdDeviation="6 6" edgeMode="duplicate"/></filter><filter id="__lottie_element_1102" x="-100%" y="-100%" width="300%" height="300%"><feGaussianBlur result="filter_result_0" stdDeviation="6 6" edgeMode="duplicate"/></filter><mask id="__lottie_element_982" mask-type="alpha"><use href="#__lottie_element_1130"/></mask><symbol id="__lottie_element_1130"><g transform="matrix(0.9384099841117859,0,0,0.9384099841117859,1382.248046875,149.24803161621094)" opacity="1" style="display: block;"><path fill="rgb(255,0,0)" fill-opacity="1" d=" M36.5,2 C55.55,2 71,17.45 71,36.5 C71,55.55 55.55,71 36.5,71 C17.45,71 2,55.55 2,36.5 C2,17.45 17.45,2 36.5,2z"/><g opacity="1" transform="matrix(1,0,0,1,36.5,36.5)"><path stroke-linecap="butt" stroke-linejoin="miter" fill-opacity="0" stroke-miterlimit="4" stroke="rgb(64,105,235)" stroke-opacity="1" stroke-width="2" d=" M0,-34.5 C19.054000854492188,-34.5 34.5,-19.054000854492188 34.5,0 C34.5,19.054000854492188 19.054000854492188,34.5 0,34.5 C-19.054000854492188,34.5 -34.5,19.054000854492188 -34.5,0 C-34.5,-19.054000854492188 -19.054000854492188,-34.5 0,-34.5z"/></g></g></symbol></defs><g clip-path="url(#__lottie_element_850)"><g transform="matrix(1,0,0,1,996.3280029296875,364.8789978027344)" opacity="1" style="display: block;"><g opacity="1" transform="matrix(1,0,0,1,61.26499938964844,104.95500183105469)"><path stroke-linecap="butt" stroke-linejoin="miter" fill-opacity="0" stroke-miterlimit="4" stroke="rgb(55,72,139)" stroke-opacity="1" stroke-width="3" d=" M-58.702999114990234,101.9540023803711 C-58.702999114990234,101.9540023803711 -58.702999114990234,-31.54599952697754 -58.702999114990234,-31.54599952697754 C-58.702999114990234,-31.54599952697754 58.26499938964844,-101.9540023803711 58.26499938964844,-101.9540023803711"/></g></g><g transform="matrix(1,0,0,1,369.7306823730469,303.6421813964844)" opacity="1" style="display: block;"><g opacity="1" transform="matrix(1,0,0,1,20.5,20.5)"><path stroke-linecap="butt" stroke-linejoin="miter" fill-opacity="0" stroke-miterlimit="4" stroke="rgb(27,43,103)" stroke-opacity="1" stroke-width="2" d=" M0,-18.5 C10.217000007629395,-18.5 18.5,-10.217000007629395 18.5,0 C18.5,10.217000007629395 10.217000007629395,18.5 0,18.5 C-10.217000007629395,18.5 -18.5,10.217000007629395 -18.5,0 C-18.5,-10.217000007629395 -10.217000007629395,-18.5 0,-18.5z"/></g><g opacity="1" transform="matrix(1,0,0,1,20.5,20.5)"><path fill="rgb(64,105,235)" fill-opacity="1" d=" M0,-8.5 C4.693999767303467,-8.5 8.5,-4.693999767303467 8.5,0 C8.5,4.693999767303467 4.693999767303467,8.5 0,8.5 C-4.693999767303467,8.5 -8.5,4.693999767303467 -8.5,0 C-8.5,-4.693999767303467 -4.693999767303467,-8.5 0,-8.5z"/></g></g><g transform="matrix(1,0,0,1,950.5,367.5)" opacity="1" style="display: block;"><g opacity="1" transform="matrix(1,0,0,1,0,0)"><path fill="rgb(255,0,0)" fill-opacity="1" d=" M-284.25,-123.5 C-284.25,-123.5 157.5,133.25 157.5,133.25"/><path stroke-linecap="butt" stroke-linejoin="miter" fill-opacity="0" stroke-miterlimit="4" stroke-dasharray=" 6.6" stroke-dashoffset="-26.33333396911621" stroke="rgb(255,255,255)" stroke-opacity="1" stroke-width="1" d=" M-284.25,-123.5 C-284.25,-123.5 157.5,133.25 157.5,133.25"/></g></g><g transform="matrix(1,0,0,1,1170.5,305.5)" opacity="1" style="display: block;"><g opacity="1" transform="matrix(1,0,0,1,0,0)"><path fill="rgb(255,0,0)" fill-opacity="1" d=" M-48.75,61.5 C-48.75,61.5 219.75,-99 219.75,-99"/><path stroke-linecap="butt" stroke-linejoin="miter" fill-opacity="0" stroke-miterlimit="4" stroke-dasharray=" 6.6" stroke-dashoffset="26.33333396911621" stroke="rgb(255,255,255)" stroke-opacity="1" stroke-width="1" d=" M-48.75,61.5 C-48.75,61.5 219.75,-99 219.75,-99"/></g></g><g transform="matrix(1,0,0,1,1170.5,305.5)" opacity="1" style="display: block;"><g opacity="1" transform="matrix(1,0,0,1,0,0)"><path fill="rgb(255,0,0)" fill-opacity="1" d=" M-172.17799377441406,508.7330017089844 C-172.17799377441406,508.7330017089844 -171.63499450683594,275.1709899902344 -171.63499450683594,275.1709899902344"/><path stroke-linecap="butt" stroke-linejoin="miter" fill-opacity="0" stroke-miterlimit="4" stroke-dasharray=" 6.6" stroke-dashoffset="-26.33333396911621" stroke="rgb(255,255,255)" stroke-opacity="1" stroke-width="1" d=" M-172.17799377441406,508.7330017089844 C-172.17799377441406,508.7330017089844 -171.63499450683594,275.1709899902344 -171.63499450683594,275.1709899902344"/></g></g><g transform="matrix(1,0,0,1,1518.6722412109375,365.2572326660156)" opacity="1" style="display: block;"><g opacity="1" transform="matrix(1,0,0,1,20.5,20.5)"><path stroke-linecap="butt" stroke-linejoin="miter" fill-opacity="0" stroke-miterlimit="4" stroke="rgb(27,43,103)" stroke-opacity="1" stroke-width="2" d=" M0,-18.5 C10.217000007629395,-18.5 18.5,-10.217000007629395 18.5,0 C18.5,10.217000007629395 10.217000007629395,18.5 0,18.5 C-10.217000007629395,18.5 -18.5,10.217000007629395 -18.5,0 C-18.5,-10.217000007629395 -10.217000007629395,-18.5 0,-18.5z"/></g><g opacity="1" transform="matrix(1,0,0,1,20.5,20.5)"><path fill="rgb(13,222,184)" fill-opacity="1" d=" M0,-8.5 C4.693999767303467,-8.5 8.5,-4.693999767303467 8.5,0 C8.5,4.693999767303467 4.693999767303467,8.5 0,8.5 C-4.693999767303467,8.5 -8.5,4.693999767303467 -8.5,0 C-8.5,-4.693999767303467 -4.693999767303467,-8.5 0,-8.5z"/></g></g><g transform="matrix(1,0,0,1,882.1640014648438,303.78900146484375)" opacity="1" style="display: block;"><g opacity="1" transform="matrix(1,0,0,1,116.55799865722656,134.125)"><path fill="rgb(55,72,139)" fill-opacity="1" d=" M113.30799865722656,-65.2020034790039 C113.30799865722656,-65.2020034790039 -0.0010000000474974513,-130.41299438476562 -0.0010000000474974513,-130.41299438476562 C-0.0010000000474974513,-130.41299438476562 -113.30799865722656,-65.2020034790039 -113.30799865722656,-65.2020034790039 C-113.30799865722656,-65.2020034790039 -113.30799865722656,65.2040023803711 -113.30799865722656,65.2040023803711 C-113.30799865722656,65.2040023803711 -0.0010000000474974513,130.4149932861328 -0.0010000000474974513,130.4149932861328 C-0.0010000000474974513,130.4149932861328 113.30799865722656,65.2040023803711 113.30799865722656,65.2040023803711 C113.30799865722656,65.2040023803711 113.30799865722656,-65.2020034790039 113.30799865722656,-65.2020034790039z M116.30799865722656,-66.93699645996094 C116.30799865722656,-66.93699645996094 116.30799865722656,66.93800354003906 116.30799865722656,66.93800354003906 C116.30799865722656,66.93800354003906 -0.0010000000474974513,133.875 -0.0010000000474974513,133.875 C-0.0010000000474974513,133.875 -116.30799865722656,66.93800354003906 -116.30799865722656,66.93800354003906 C-116.30799865722656,66.93800354003906 -116.30799865722656,-66.93699645996094 -116.30799865722656,-66.93699645996094 C-116.30799865722656,-66.93699645996094 -0.0010000000474974513,-133.875 -0.0010000000474974513,-133.875 C-0.0010000000474974513,-133.875 116.30799865722656,-66.93699645996094 116.30799865722656,-66.93699645996094z"/></g></g><g transform="matrix(1,0,0,1,772,503.4420166015625)" opacity="1" style="display: block;"><g opacity="1" transform="matrix(1,0,0,1,56.0629997253418,30.77899932861328)"><path stroke-linecap="butt" stroke-linejoin="miter" fill-opacity="0" stroke-miterlimit="4" stroke="rgb(55,72,139)" stroke-opacity="1" stroke-width="1" d=" M-54.8129997253418,32.52799987792969 C-54.8129997253418,32.52799987792969 55.5629997253418,-29.777999877929688 55.5629997253418,-29.777999877929688"/></g></g><g transform="matrix(1,0,0,1,1115,504)" opacity="1" style="display: block;"><g opacity="1" transform="matrix(1,0,0,1,84.5,51)"><path stroke-linecap="butt" stroke-linejoin="miter" fill-opacity="0" stroke-miterlimit="4" stroke="rgb(55,72,139)" stroke-opacity="1" stroke-width="1" d=" M86.25,48.5 C86.25,48.5 -84,-50.5 -84,-50.5"/></g></g><g transform="matrix(1,0,0,1,966.5,382)" opacity="1" style="display: block;"><g opacity="1" transform="matrix(1,0,0,1,0,0)"><path fill="rgb(21,26,54)" fill-opacity="1" d=" M-40.99399948120117,98.73400115966797 C-18.65399932861328,86.15699768066406 1.4110000133514404,74.86199951171875 15.031999588012695,67.19400024414062"/><path stroke-linecap="round" stroke-linejoin="miter" fill-opacity="0" stroke-miterlimit="4" stroke="rgb(13,221,183)" stroke-opacity="1" stroke-width="8" d=" M-40.99399948120117,98.73400115966797 C-18.65399932861328,86.15699768066406 1.4110000133514404,74.86199951171875 15.031999588012695,67.19400024414062"/></g></g><g filter="url(#__lottie_element_1102)" transform="matrix(1,0,0,1,966.5,382)" opacity="0.25" style="display: block;"><g opacity="1" transform="matrix(1,0,0,1,0,0)"><path fill="rgb(21,26,54)" fill-opacity="1" d=" M-79.27400207519531,120.28299713134766 C-49.676998138427734,103.62200164794922 -20.049999237060547,86.94300079345703 1.3700000047683716,74.88500213623047"/><path stroke-linecap="round" stroke-linejoin="miter" fill-opacity="0" stroke-miterlimit="4" stroke="rgb(13,221,183)" stroke-opacity="1" stroke-width="6" d=" M-79.27400207519531,120.28299713134766 C-49.676998138427734,103.62200164794922 -20.049999237060547,86.94300079345703 1.3700000047683716,74.88500213623047"/></g></g><g transform="matrix(-0.4700108468532562,-0.8826606273651123,0.8826606273651123,-0.4700108468532562,1032.408935546875,522.7839965820312)" opacity="1" style="display: block;"><g opacity="1" transform="matrix(1,0,0,1,0,0)"><path fill="rgb(21,26,54)" fill-opacity="1" d=" M-187.66900634765625,183.6739959716797 C-187.66900634765625,183.6739959716797 -184.26499938964844,181.552001953125 -178.21099853515625,177.7779998779297"/><path stroke-linecap="round" stroke-linejoin="miter" fill-opacity="0" stroke-miterlimit="4" stroke="rgb(13,221,183)" stroke-opacity="1" stroke-width="1.7147423185494615" d=" M-187.66900634765625,183.6739959716797 C-187.66900634765625,183.6739959716797 -184.26499938964844,181.552001953125 -178.21099853515625,177.7779998779297"/></g></g><g filter="url(#__lottie_element_1096)" transform="matrix(-0.4700108468532562,-0.8826606273651123,0.8826606273651123,-0.4700108468532562,1032.408935546875,522.7839965820312)" opacity="0.25" style="display: block;"><g opacity="1" transform="matrix(1,0,0,1,0,0)"><path fill="rgb(21,26,54)" fill-opacity="1" d="M0 0"/><path stroke-linecap="round" stroke-linejoin="miter" fill-opacity="0" stroke-miterlimit="4" stroke="rgb(13,221,183)" stroke-opacity="1" stroke-width="0" d="M0 0"/></g></g><g transform="matrix(-0.4700108468532562,-0.8826606273651123,0.8826606273651123,-0.4700108468532562,727.842041015625,170.9059600830078)" opacity="1" style="display: block;"><g opacity="1" transform="matrix(1,0,0,1,0,0)"><path fill="rgb(21,26,54)" fill-opacity="1" d=" M-37.19300079345703,-87.92900085449219 C-37.19300079345703,-87.92900085449219 -361.25,112.96900177001953 -361.25,112.96900177001953"/><path stroke-linecap="round" stroke-linejoin="miter" fill-opacity="0" stroke-miterlimit="4" stroke-dasharray=" 45 57 17 36 5 40" stroke-dashoffset="-131.93087768554688" stroke="rgb(13,221,183)" stroke-opacity="1" stroke-width="8" d=" M-37.19300079345703,-87.92900085449219 C-37.19300079345703,-87.92900085449219 -361.25,112.96900177001953 -361.25,112.96900177001953"/></g></g><g transform="matrix(-0.4700108468532562,-0.8826606273651123,0.8826606273651123,-0.4700108468532562,1032.408935546875,522.7839965820312)" opacity="1" style="display: block;"><g opacity="1" transform="matrix(1,0,0,1,0,0)"><path fill="rgb(21,26,54)" fill-opacity="1" d="M0 0"/><path stroke-linecap="round" stroke-linejoin="miter" fill-opacity="0" stroke-miterlimit="4" stroke="rgb(13,221,183)" stroke-opacity="1" stroke-width="0" d="M0 0"/></g></g><g filter="url(#__lottie_element_1087)" transform="matrix(-0.4700108468532562,-0.8826606273651123,0.8826606273651123,-0.4700108468532562,1032.408935546875,522.7839965820312)" opacity="0.25" style="display: block;"><g opacity="1" transform="matrix(1,0,0,1,0,0)"><path fill="rgb(21,26,54)" fill-opacity="1" d="M0 0"/><path stroke-linecap="round" stroke-linejoin="miter" fill-opacity="0" stroke-miterlimit="4" stroke="rgb(13,221,183)" stroke-opacity="1" stroke-width="0" d="M0 0"/></g></g><g transform="matrix(1,0,0,1,998,-113.73199462890625)" opacity="1" style="display: block;"><g opacity="1" transform="matrix(1,0,0,1,0,0)"><path stroke-linecap="butt" stroke-linejoin="miter" fill-opacity="0" stroke-miterlimit="4" stroke="rgb(55,72,139)" stroke-opacity="1" stroke-width="1" d=" M0.5,418.23199462890625 C0.5,418.23199462890625 0.5,0.5 0.5,0.5"/></g></g><g transform="matrix(1,0,0,1,874.75,361.75)" opacity="1" style="display: block;"><g opacity="1" transform="matrix(1,0,0,1,8.75,8.75)"><path fill="rgb(255,255,255)" fill-opacity="1" d=" M0,-8.5 C4.693999767303467,-8.5 8.5,-4.693999767303467 8.5,0 C8.5,4.693999767303467 4.693999767303467,8.5 0,8.5 C-4.693999767303467,8.5 -8.5,4.693999767303467 -8.5,0 C-8.5,-4.693999767303467 -4.693999767303467,-8.5 0,-8.5z"/></g></g><g transform="matrix(1,0,0,1,1106.75,361.75)" opacity="1" style="display: block;"><g opacity="1" transform="matrix(1,0,0,1,8.75,8.75)"><path fill="rgb(255,255,255)" fill-opacity="1" d=" M0,-8.5 C4.693999767303467,-8.5 8.5,-4.693999767303467 8.5,0 C8.5,4.693999767303467 4.693999767303467,8.5 0,8.5 C-4.693999767303467,8.5 -8.5,4.693999767303467 -8.5,0 C-8.5,-4.693999767303467 -4.693999767303467,-8.5 0,-8.5z"/></g></g><g transform="matrix(1,0,0,1,1106.75,495.75)" opacity="1" style="display: block;"><g opacity="1" transform="matrix(1,0,0,1,8.75,8.75)"><path fill="rgb(64,105,235)" fill-opacity="1" d=" M0,-8.5 C4.693999767303467,-8.5 8.5,-4.693999767303467 8.5,0 C8.5,4.693999767303467 4.693999767303467,8.5 0,8.5 C-4.693999767303467,8.5 -8.5,4.693999767303467 -8.5,0 C-8.5,-4.693999767303467 -4.693999767303467,-8.5 0,-8.5z"/></g></g><g transform="matrix(1,0,0,1,990.75,563.75)" opacity="1" style="display: block;"><g opacity="1" transform="matrix(1,0,0,1,8.75,8.75)"><path fill="rgb(255,255,255)" fill-opacity="1" d=" M0,-8.5 C4.693999767303467,-8.5 8.5,-4.693999767303467 8.5,0 C8.5,4.693999767303467 4.693999767303467,8.5 0,8.5 C-4.693999767303467,8.5 -8.5,4.693999767303467 -8.5,0 C-8.5,-4.693999767303467 -4.693999767303467,-8.5 0,-8.5z"/></g></g><g transform="matrix(1,0,0,1,874.75,495.75)" opacity="1" style="display: block;"><g opacity="1" transform="matrix(1,0,0,1,8.75,8.75)"><path fill="rgb(64,105,235)" fill-opacity="1" d=" M0,-8.5 C4.693999767303467,-8.5 8.5,-4.693999767303467 8.5,0 C8.5,4.693999767303467 4.693999767303467,8.5 0,8.5 C-4.693999767303467,8.5 -8.5,4.693999767303467 -8.5,0 C-8.5,-4.693999767303467 -4.693999767303467,-8.5 0,-8.5z"/></g></g><g transform="matrix(0.3449999988079071,0,0,0.3449999988079071,1295.2001953125,600.2958374023438)" opacity="1" style="display: block;"><g opacity="1" transform="matrix(-1,0,0,1,127.4000015258789,0)"><g opacity="1" transform="matrix(1,0,0,1,62.72999954223633,85.10199737548828)"><path stroke-linecap="butt" stroke-linejoin="round" fill-opacity="0" stroke="rgb(255,255,255)" stroke-opacity="1" stroke-width="6.987" d=" M-42.92399978637695,65.16100311279297 C-42.92399978637695,65.16100311279297 -0.3630000054836273,-65.2959976196289 -0.3630000054836273,-65.2959976196289"/></g></g><g opacity="1" transform="matrix(1,0,0,1,0,0)"><g opacity="1" transform="matrix(1,0,0,1,62.72999954223633,85.10199737548828)"><path stroke-linecap="butt" stroke-linejoin="round" fill-opacity="0" stroke="rgb(255,255,255)" stroke-opacity="1" stroke-width="6.987" d=" M-42.92399978637695,65.16100311279297 C-42.92399978637695,65.16100311279297 -0.3630000054836273,-65.2959976196289 -0.3630000054836273,-65.2959976196289"/></g></g></g><g transform="matrix(0.3449999988079071,0,0,0.3449999988079071,1303.632568359375,626.8819580078125)" opacity="1" style="display: block;"><g opacity="1" transform="matrix(1,0,0,1,30.577999114990234,27.832000732421875)"><path stroke-linecap="butt" stroke-linejoin="miter" fill-opacity="0" stroke-miterlimit="11.34" stroke="rgb(255,255,255)" stroke-opacity="1" stroke-width="6.987" d=" M-27.084999084472656,24.339000701904297 C-27.084999084472656,24.339000701904297 27.084999084472656,-24.339000701904297 27.084999084472656,-24.339000701904297"/></g></g><g transform="matrix(0.3449999988079071,0,0,0.3449999988079071,1309.7315673828125,626.6509399414062)" opacity="1" style="display: block;"><g opacity="1" transform="matrix(1,0,0,1,30.577999114990234,27.832000732421875)"><path stroke-linecap="butt" stroke-linejoin="miter" fill-opacity="0" stroke-miterlimit="11.34" stroke="rgb(255,255,255)" stroke-opacity="1" stroke-width="6.987" d=" M27.084999084472656,24.339000701904297 C27.084999084472656,24.339000701904297 -27.084999084472656,-24.339000701904297 -27.084999084472656,-24.339000701904297"/></g></g><g transform="matrix(0.3449999988079071,0,0,0.3449999988079071,1307.1348876953125,593.547607421875)" opacity="1" style="display: block;"><g opacity="1" transform="matrix(-1,0,0,1,58,0)"><g opacity="1" transform="matrix(1,0,0,1,28.660999298095703,28.66200065612793)"><path stroke-linecap="butt" stroke-linejoin="miter" fill-opacity="0" stroke-miterlimit="4" stroke="rgb(255,255,255)" stroke-opacity="1" stroke-width="6.52" d=" M-0.0010000000474974513,10.178999900817871 C-5.622000217437744,10.178999900817871 -10.178000450134277,5.622000217437744 -10.178000450134277,0 C-10.178000450134277,-5.622000217437744 -5.622000217437744,-10.178999900817871 -0.0010000000474974513,-10.178999900817871"/></g></g><g opacity="1" transform="matrix(1,0,0,1,0,0)"><g opacity="1" transform="matrix(1,0,0,1,28.660999298095703,28.66200065612793)"><path stroke-linecap="butt" stroke-linejoin="miter" fill-opacity="0" stroke-miterlimit="4" stroke="rgb(255,255,255)" stroke-opacity="1" stroke-width="6.52" d=" M-0.0010000000474974513,10.178999900817871 C-5.622000217437744,10.178999900817871 -10.178000450134277,5.622000217437744 -10.178000450134277,0 C-10.178000450134277,-5.622000217437744 -5.622000217437744,-10.178999900817871 -0.0010000000474974513,-10.178999900817871"/></g></g></g><g transform="matrix(0.3449999988079071,0,0,0.3449999988079071,1299.4664306640625,590.439697265625)" opacity="0.9731090472741706" style="display: block;"><g opacity="1" transform="matrix(1,0,0,1,23.24799919128418,37.11399841308594)"><path stroke-linecap="round" stroke-linejoin="round" fill-opacity="0" stroke="rgb(255,255,255)" stroke-opacity="1" stroke-width="6.52" d=" M4.034999847412109,18.631000518798828 C-4.764999866485596,7.339000225067139 -4.4720001220703125,-7.611999988555908 4.765999794006348,-18.631000518798828"/></g></g><g transform="matrix(0.3449999988079071,0,0,0.3449999988079071,1304.39892578125,592.7732543945312)" opacity="0.8853388503876103" style="display: block;"><g opacity="1" transform="matrix(1,0,0,1,21.150999069213867,30.350000381469727)"><path stroke-linecap="round" stroke-linejoin="round" fill-opacity="0" stroke="rgb(255,255,255)" stroke-opacity="1" stroke-width="6.52" d=" M2.257999897003174,11.868000030517578 C-2.6679999828338623,4.675000190734863 -2.503999948501587,-4.848999977111816 2.6679999828338623,-11.868000030517578"/></g></g><g transform="matrix(-0.3449999988079071,0,0,0.3449999988079071,1334.57958984375,590.439697265625)" opacity="0.9731090472741706" style="display: block;"><g opacity="1" transform="matrix(1,0,0,1,23.24799919128418,37.11399841308594)"><path stroke-linecap="round" stroke-linejoin="round" fill-opacity="0" stroke="rgb(255,255,255)" stroke-opacity="1" stroke-width="6.52" d=" M4.034999847412109,18.631000518798828 C-4.764999866485596,7.339000225067139 -4.4720001220703125,-7.611999988555908 4.765999794006348,-18.631000518798828"/></g></g><g transform="matrix(-0.3449999988079071,0,0,0.3449999988079071,1329.6470947265625,592.7732543945312)" opacity="0.8853388503876103" style="display: block;"><g opacity="1" transform="matrix(1,0,0,1,21.150999069213867,30.350000381469727)"><path stroke-linecap="round" stroke-linejoin="round" fill-opacity="0" stroke="rgb(255,255,255)" stroke-opacity="1" stroke-width="6.52" d=" M2.257999897003174,11.868000030517578 C-2.6679999828338623,4.675000190734863 -2.503999948501587,-4.848999977111816 2.6679999828338623,-11.868000030517578"/></g></g><g transform="matrix(1,0,0,1,966.5,382)" opacity="1" style="display: block;"><g opacity="1" transform="matrix(-1,0,0,1,-459.3999938964844,0)"><g opacity="1" transform="matrix(1,0,0,1,0,0)"><path stroke-linecap="butt" stroke-linejoin="bevel" fill-opacity="0" stroke="rgb(255,255,255)" stroke-opacity="1" stroke-width="1.5" d=" M-230.15499877929688,180.2519989013672 C-229.9709930419922,180.71099853515625 -229.89100646972656,181.1580047607422 -229.89100646972656,181.5 C-229.89100646972656,182.625 -229.89100646972656,196.25 -229.89100646972656,200.625 C-229.89100646972656,205 -229.9219970703125,217.875 -229.9219970703125,220.625 C-229.9219970703125,223.375 -231,224.5 -233.25,226.25 C-235.5,228 -238.125,227.5 -240,226.875 C-241.875,226.25 -246.5,221.5 -247.75,221 C-249,220.5 -248.375,217.75 -248.375,216.125 C-248.375,214.5 -251.75,213.875 -251.75,211.625 C-251.75,209.375 -251.375,207.125 -250.125,206.5 C-248.875,205.875 -252.125,204.625 -252.125,201.125 C-252.125,197.625 -250.75,198.625 -249.625,197.375 C-248.5,196.125 -251.5,191.375 -247.75,189.625 C-245.4149932861328,188.53500366210938 -244.625,190.125 -244.75,186 C-244.875,181.875 -240.5,181.375 -239.25,180.375 C-238,179.375 -236,177.875 -233.375,178 C-233.375,178 -233.375,178 -233.375,178 C-231.5489959716797,178.08700561523438 -230.57699584960938,179.2030029296875 -230.15499877929688,180.2519989013672"/></g></g><g opacity="1" transform="matrix(1,0,0,1,0,0)"><g opacity="1" transform="matrix(1,0,0,1,0,0)"><path stroke-linecap="butt" stroke-linejoin="bevel" fill-opacity="0" stroke="rgb(255,255,255)" stroke-opacity="1" stroke-width="1.5" d=" M-230.15499877929688,180.2519989013672 C-229.9709930419922,180.71099853515625 -229.89100646972656,181.1580047607422 -229.89100646972656,181.5 C-229.89100646972656,182.625 -229.89100646972656,196.25 -229.89100646972656,200.625 C-229.89100646972656,205 -229.9219970703125,217.875 -229.9219970703125,220.625 C-229.9219970703125,223.375 -231,224.5 -233.25,226.25 C-235.5,228 -238.125,227.5 -240,226.875 C-241.875,226.25 -246.5,221.5 -247.75,221 C-249,220.5 -248.375,217.75 -248.375,216.125 C-248.375,214.5 -251.75,213.875 -251.75,211.625 C-251.75,209.375 -251.375,207.125 -250.125,206.5 C-248.875,205.875 -252.125,204.625 -252.125,201.125 C-252.125,197.625 -250.75,198.625 -249.625,197.375 C-248.5,196.125 -251.5,191.375 -247.75,189.625 C-245.4149932861328,188.53500366210938 -244.625,190.125 -244.75,186 C-244.875,181.875 -240.5,181.375 -239.25,180.375 C-238,179.375 -236,177.875 -233.375,178 C-233.375,178 -233.375,178 -233.375,178 C-231.5489959716797,178.08700561523438 -230.57699584960938,179.2030029296875 -230.15499877929688,180.2519989013672"/></g></g></g><g transform="matrix(1,0,0,1,966.5,382)" opacity="1" style="display: block;"><g opacity="1" transform="matrix(1,0,0,1,0,0)"><path stroke-linecap="butt" stroke-linejoin="bevel" fill-opacity="0" stroke="rgb(255,255,255)" stroke-opacity="1" stroke-width="1.5" d=" M-240.3560028076172,181.48800659179688 C-238.99200439453125,182.08700561523438 -236.375,183.57400512695312 -236.375,184.625 M-240.625,181.375 C-240.57200622558594,181.39599609375 -240.51499938964844,181.4199981689453 -240.4550018310547,181.44500732421875"/></g><g opacity="1" transform="matrix(1,0,0,1,0,0)"><path stroke-linecap="butt" stroke-linejoin="bevel" fill-opacity="0" stroke="rgb(255,255,255)" stroke-opacity="1" stroke-width="1.5" d=" M-237.93299865722656,194.5679931640625 C-238.40199279785156,191.23300170898438 -240.96400451660156,188.8560028076172 -244.875,188.5 M-237.875,195.125 C-237.88299560546875,195.0070037841797 -237.8939971923828,194.88999938964844 -237.90699768066406,194.7740020751953"/></g><g opacity="1" transform="matrix(1,0,0,1,0,0)"><path stroke-linecap="butt" stroke-linejoin="bevel" fill-opacity="0" stroke="rgb(255,255,255)" stroke-opacity="1" stroke-width="1.5" d=" M-245.36300659179688,208.24600219726562 C-246.91799926757812,208.18899536132812 -248.54299926757812,207.59500122070312 -249.375,207 M-245.125,208.25 C-245.1750030517578,208.25 -245.22500610351562,208.24899291992188 -245.2740020751953,208.2480010986328"/></g><g opacity="1" transform="matrix(1,0,0,1,0,0)"><path stroke-linecap="butt" stroke-linejoin="bevel" fill-opacity="0" stroke="rgb(255,255,255)" stroke-opacity="1" stroke-width="1.5" d=" M-237.07000732421875,209.4040069580078 C-240.38600158691406,210.08099365234375 -242.6929931640625,212.8260040283203 -242.25,215.375 C-241.75,218.25 -244.625,215.875 -244.75,216 C-244.875,216.125 -236.75,216.75 -238,223.125 M-235.75,209.25 C-236.0330047607422,209.25900268554688 -236.31100463867188,209.2830047607422 -236.58200073242188,209.32000732421875"/></g><g opacity="1" transform="matrix(1,0,0,1,0,0)"><path stroke-linecap="butt" stroke-linejoin="bevel" fill-opacity="0" stroke="rgb(255,255,255)" stroke-opacity="1" stroke-width="1.5" d=" M-224.9409942626953,207.72500610351562 C-222.62899780273438,208.51100158691406 -219.59800720214844,211.218994140625 -220.125,213.75 C-220.125,214.875 -219.125,214.625 -218.375,214.375 C-217.625,214.125 -223,212.375 -224.75,221.5 M-226.125,207.5 C-225.8939971923828,207.5 -225.64100646972656,207.53399658203125 -225.3719940185547,207.5989990234375"/></g><g opacity="1" transform="matrix(1,0,0,1,0,0)"><path stroke-linecap="butt" stroke-linejoin="bevel" fill-opacity="0" stroke="rgb(255,255,255)" stroke-opacity="1" stroke-width="1.5" d=" M-234.98300170898438,213.86199951171875 C-233.156005859375,214.36099243164062 -229.875,216.2449951171875 -229.875,221 M-235.5,213.75 C-235.39999389648438,213.76499938964844 -235.2899932861328,213.78700256347656 -235.17300415039062,213.81399536132812"/></g><g opacity="1" transform="matrix(1,0,0,1,0,0)"><path stroke-linecap="butt" stroke-linejoin="bevel" fill-opacity="0" stroke="rgb(255,255,255)" stroke-opacity="1" stroke-width="1.5" d=" M-214.08700561523438,207.91700744628906 C-212.18499755859375,207.40699768066406 -210.31500244140625,207.67799377441406 -209.125,206.25 M-214.375,208 C-214.31500244140625,207.9810028076172 -214.2550048828125,207.96299743652344 -214.19500732421875,207.9459991455078"/></g><g opacity="1" transform="matrix(1,0,0,1,0,0)"><path stroke-linecap="butt" stroke-linejoin="bevel" fill-opacity="0" stroke="rgb(255,255,255)" stroke-opacity="1" stroke-width="1.5" d=" M-214.37600708007812,195.08399963378906 C-215.28799438476562,198.06100463867188 -218.4810028076172,200.781005859375 -220.5,200.25 C-222.875,199.625 -217.625,204.875 -215.125,204.875 C-217.75,203.75 -223.375,199.25 -225,198.625 M-214.125,193.5 C-214.125,193.83299255371094 -214.16099548339844,194.16900634765625 -214.22900390625,194.50399780273438"/></g><g opacity="1" transform="matrix(1,0,0,1,0,0)"><path stroke-linecap="butt" stroke-linejoin="bevel" fill-opacity="0" stroke="rgb(255,255,255)" stroke-opacity="1" stroke-width="1.5" d=" M-243.93800354003906,195.5019989013672 C-243.33099365234375,198.24099731445312 -241.23199462890625,201.25 -237.5,201.25 C-238.25,203 -241.25,205.5 -243.125,206 C-239.625,204.75 -234.875,202 -233.625,198.5 M-244.125,193.875 C-244.125,194.20399475097656 -244.10000610351562,194.54800415039062 -244.04800415039062,194.90199279785156"/></g><g opacity="1" transform="matrix(1,0,0,1,0,0)"><path stroke-linecap="butt" stroke-linejoin="bevel" fill-opacity="0" stroke="rgb(255,255,255)" stroke-opacity="1" stroke-width="1.5" d=" M-233.843994140625,192.17799377441406 C-232.24000549316406,192.52999877929688 -230.125,193.8350067138672 -230.125,195.25 M-234.125,192.125 C-234.06700134277344,192.13400268554688 -234.00799560546875,192.1439971923828 -233.947998046875,192.156005859375"/></g><g opacity="1" transform="matrix(1,0,0,1,0,0)"><path stroke-linecap="butt" stroke-linejoin="bevel" fill-opacity="0" stroke="rgb(255,255,255)" stroke-opacity="1" stroke-width="1.5" d=" M-225.78900146484375,188.50799560546875 C-227.8769989013672,188.6199951171875 -229.25,189.9510040283203 -229.25,191.625 M-225.5,188.5 C-225.56100463867188,188.5 -225.6219940185547,188.50100708007812 -225.6820068359375,188.5030059814453"/></g><g opacity="1" transform="matrix(1,0,0,1,0,0)"><path stroke-linecap="butt" stroke-linejoin="bevel" fill-opacity="0" stroke="rgb(255,255,255)" stroke-opacity="1" stroke-width="1.5" d=" M-222.09500122070312,195.3990020751953 C-221.81199645996094,192.52499389648438 -219.55599975585938,188.5 -215.125,188.5 M-222.125,196 C-222.125,195.8769989013672 -222.12100219726562,195.75100708007812 -222.11300659179688,195.6219940185547"/></g><g opacity="1" transform="matrix(1,0,0,1,0,0)"><path stroke-linecap="butt" stroke-linejoin="bevel" fill-opacity="0" stroke="rgb(255,255,255)" stroke-opacity="1" stroke-width="1.5" d=" M-223.48800659179688,184.76800537109375 C-223.26400756835938,181.6510009765625 -220.07200622558594,182 -218.625,182 M-223.5,185.125 C-223.5,185.04800415039062 -223.4980010986328,184.9739990234375 -223.4949951171875,184.9010009765625"/></g></g><g transform="matrix(1,0,0,1,693,542)" opacity="1" style="display: block;"><g opacity="1" transform="matrix(1,0,0,1,43.5,43.5)"><path stroke-linecap="butt" stroke-linejoin="miter" fill-opacity="0" stroke-miterlimit="4" stroke="rgb(13,222,184)" stroke-opacity="1" stroke-width="2" d=" M0,-41.5 C22.920000076293945,-41.5 41.5,-22.920000076293945 41.5,0 C41.5,22.920000076293945 22.920000076293945,41.5 0,41.5 C-22.920000076293945,41.5 -41.5,22.920000076293945 -41.5,0 C-41.5,-22.920000076293945 -22.920000076293945,-41.5 0,-41.5z"/></g></g><g transform="matrix(1,0,0,1,590,174)" opacity="1" style="display: block;"><g opacity="1" transform="matrix(1,0,0,1,43.5,43.5)"><path stroke-linecap="butt" stroke-linejoin="miter" fill-opacity="0" stroke-miterlimit="4" stroke="rgb(13,222,184)" stroke-opacity="1" stroke-width="2" d=" M0,-41.5 C22.920000076293945,-41.5 41.5,-22.920000076293945 41.5,0 C41.5,22.920000076293945 22.920000076293945,41.5 0,41.5 C-22.920000076293945,41.5 -41.5,22.920000076293945 -41.5,0 C-41.5,-22.920000076293945 -22.920000076293945,-41.5 0,-41.5z"/></g></g><g filter="url(#__lottie_element_1027)" transform="matrix(1,0,0,1,359.01202392578125,483.1558837890625)" opacity="1" style="display: block;"><g opacity="1" transform="matrix(1,0,0,1,42.75,42.75)"><path fill="rgb(27,43,103)" fill-opacity="1" d=" M0,-42.5 C23.472000122070312,-42.5 42.5,-23.472000122070312 42.5,0 C42.5,23.472000122070312 23.472000122070312,42.5 0,42.5 C-23.472000122070312,42.5 -42.5,23.472000122070312 -42.5,0 C-42.5,-23.472000122070312 -23.472000122070312,-42.5 0,-42.5z"/></g></g><g filter="url(#__lottie_element_1024)" transform="matrix(1,0,0,1,1544.21044921875,504.2520751953125)" opacity="1" style="display: block;"><g opacity="1" transform="matrix(1,0,0,1,66.75,63.25)"><path fill="rgb(27,43,103)" fill-opacity="1" d=" M0,-63 C36.72700119018555,-63 66.5,-34.79399871826172 66.5,0 C66.5,34.79399871826172 36.72700119018555,63 0,63 C-36.72700119018555,63 -66.5,34.79399871826172 -66.5,0 C-66.5,-34.79399871826172 -36.72700119018555,-63 0,-63z"/></g></g><g transform="matrix(1,0,0,1,-67.36599731445312,251.41488647460938)" opacity="1" style="display: block;"><g opacity="1" transform="matrix(1,0,0,1,116.5,116.5)"><path stroke-linecap="butt" stroke-linejoin="miter" fill-opacity="0" stroke-miterlimit="4" stroke="rgb(27,43,103)" stroke-opacity="1" stroke-width="2" d=" M0,-114.5 C63.23699951171875,-114.5 114.5,-63.23699951171875 114.5,0 C114.5,63.236000061035156 63.23699951171875,114.5 0,114.5 C-63.23699951171875,114.5 -114.5,63.236000061035156 -114.5,0 C-114.5,-63.23699951171875 -63.23699951171875,-114.5 0,-114.5z"/></g></g><g transform="matrix(1,0,0,1,1640.814208984375,55.55732727050781)" opacity="1" style="display: block;"><g opacity="1" transform="matrix(1,0,0,1,180.5,180.5)"><path stroke-linecap="butt" stroke-linejoin="miter" fill-opacity="0" stroke-miterlimit="4" stroke="rgb(27,43,103)" stroke-opacity="1" stroke-width="2" d=" M0,-178.5 C98.58300018310547,-178.5 178.5,-98.58300018310547 178.5,0 C178.5,98.58300018310547 98.58300018310547,178.5 0,178.5 C-98.58300018310547,178.5 -178.5,98.58300018310547 -178.5,0 C-178.5,-98.58300018310547 -98.58300018310547,-178.5 0,-178.5z"/></g></g><g transform="matrix(1,0,0,1,1316.6134033203125,400.5896301269531)" opacity="1" style="display: block;"><g opacity="1" transform="matrix(1,0,0,1,20.5,20.5)"><path stroke-linecap="butt" stroke-linejoin="miter" fill-opacity="0" stroke-miterlimit="4" stroke="rgb(27,43,103)" stroke-opacity="1" stroke-width="2" d=" M0,-18.5 C10.217000007629395,-18.5 18.5,-10.217000007629395 18.5,0 C18.5,10.217000007629395 10.217000007629395,18.5 0,18.5 C-10.217000007629395,18.5 -18.5,10.217000007629395 -18.5,0 C-18.5,-10.217000007629395 -10.217000007629395,-18.5 0,-18.5z"/></g><g opacity="1" transform="matrix(1,0,0,1,20.5,20.5)"><path fill="rgb(255,255,255)" fill-opacity="1" d=" M0,-8.5 C4.693999767303467,-8.5 8.5,-4.693999767303467 8.5,0 C8.5,4.693999767303467 4.693999767303467,8.5 0,8.5 C-4.693999767303467,8.5 -8.5,4.693999767303467 -8.5,0 C-8.5,-4.693999767303467 -4.693999767303467,-8.5 0,-8.5z"/></g></g><g transform="matrix(1,0,0,1,950.5,367.5)" opacity="1" style="display: block;"><g opacity="1" transform="matrix(1,0,0,1,0,0)"><path fill="rgb(255,0,0)" fill-opacity="1" d=" M-1043,-306 C-1043,-306 -579.7670288085938,-45.852500915527344 -579.7670288085938,-45.852500915527344"/><path stroke-linecap="butt" stroke-linejoin="miter" fill-opacity="0" stroke-miterlimit="4" stroke-dasharray=" 6.6" stroke-dashoffset="-26.33333396911621" stroke="rgb(255,255,255)" stroke-opacity="1" stroke-width="1" d=" M-1043,-306 C-1043,-306 -579.7670288085938,-45.852500915527344 -579.7670288085938,-45.852500915527344"/></g></g><g transform="matrix(1,0,0,1,950.5,367.5)" opacity="1" style="display: block;"><g opacity="1" transform="matrix(1,0,0,1,0,0)"><path fill="rgb(255,0,0)" fill-opacity="1" d=" M-541.0170288085938,-46.602500915527344 C-541.0170288085938,-46.602500915527344 -355,-128.5 -355,-128.5"/><path stroke-linecap="butt" stroke-linejoin="miter" fill-opacity="0" stroke-miterlimit="4" stroke-dasharray=" 6.6" stroke-dashoffset="-26.33333396911621" stroke="rgb(255,255,255)" stroke-opacity="1" stroke-width="1" d=" M-541.0170288085938,-46.602500915527344 C-541.0170288085938,-46.602500915527344 -355,-128.5 -355,-128.5"/></g></g><g transform="matrix(1,0,0,1,1170.5,305.5)" opacity="1" style="display: block;"><g opacity="1" transform="matrix(1,0,0,1,0,0)"><path fill="rgb(255,0,0)" fill-opacity="1" d=" M175.25,293 C175.25,293 352.1755065917969,90.25550079345703 352.1755065917969,90.25550079345703"/><path stroke-linecap="butt" stroke-linejoin="miter" fill-opacity="0" stroke-miterlimit="4" stroke-dasharray=" 6.6" stroke-dashoffset="26.33333396911621" stroke="rgb(255,255,255)" stroke-opacity="1" stroke-width="1" d=" M175.25,293 C175.25,293 352.1755065917969,90.25550079345703 352.1755065917969,90.25550079345703"/></g></g><g transform="matrix(1,0,0,1,1170.5,305.5)" opacity="1" style="display: block;"><g opacity="1" transform="matrix(1,0,0,1,0,0)"><path fill="rgb(255,0,0)" fill-opacity="1" d=" M388.2455139160156,79.6084976196289 C388.2455139160156,79.6084976196289 860,284.5 860,284.5"/><path stroke-linecap="butt" stroke-linejoin="miter" fill-opacity="0" stroke-miterlimit="4" stroke-dasharray=" 6.6" stroke-dashoffset="26.33333396911621" stroke="rgb(255,255,255)" stroke-opacity="1" stroke-width="1" d=" M388.2455139160156,79.6084976196289 C388.2455139160156,79.6084976196289 860,284.5 860,284.5"/></g></g><g transform="matrix(1,0,0,1,627.4038696289062,433.7610168457031)" opacity="1" style="display: block;"><g opacity="1" transform="matrix(1,0,0,1,20.5,20.5)"><path stroke-linecap="butt" stroke-linejoin="miter" fill-opacity="0" stroke-miterlimit="4" stroke="rgb(27,43,103)" stroke-opacity="1" stroke-width="2" d=" M0,-18.5 C10.217000007629395,-18.5 18.5,-10.217000007629395 18.5,0 C18.5,10.217000007629395 10.217000007629395,18.5 0,18.5 C-10.217000007629395,18.5 -18.5,10.217000007629395 -18.5,0 C-18.5,-10.217000007629395 -10.217000007629395,-18.5 0,-18.5z"/></g><g opacity="1" transform="matrix(1,0,0,1,20.5,20.5)"><path fill="rgb(13,222,184)" fill-opacity="1" d=" M0,-8.5 C4.693999767303467,-8.5 8.5,-4.693999767303467 8.5,0 C8.5,4.693999767303467 4.693999767303467,8.5 0,8.5 C-4.693999767303467,8.5 -8.5,4.693999767303467 -8.5,0 C-8.5,-4.693999767303467 -4.693999767303467,-8.5 0,-8.5z"/></g></g><g transform="matrix(1,0,0,1,303.5169372558594,56.222434997558594)" opacity="1" style="display: block;"><g opacity="1" transform="matrix(1,0,0,1,20.5,20.5)"><path stroke-linecap="butt" stroke-linejoin="miter" fill-opacity="0" stroke-miterlimit="4" stroke="rgb(27,43,103)" stroke-opacity="1" stroke-width="2" d=" M0,-18.5 C10.217000007629395,-18.5 18.5,-10.217000007629395 18.5,0 C18.5,10.217000007629395 10.217000007629395,18.5 0,18.5 C-10.217000007629395,18.5 -18.5,10.217000007629395 -18.5,0 C-18.5,-10.217000007629395 -10.217000007629395,-18.5 0,-18.5z"/></g><g opacity="1" transform="matrix(1,0,0,1,20.5,20.5)"><path fill="rgb(245,245,245)" fill-opacity="1" d=" M0,-8.5 C4.693999767303467,-8.5 8.5,-4.693999767303467 8.5,0 C8.5,4.693999767303467 4.693999767303467,8.5 0,8.5 C-4.693999767303467,8.5 -8.5,4.693999767303467 -8.5,0 C-8.5,-4.693999767303467 -4.693999767303467,-8.5 0,-8.5z"/></g></g><g transform="matrix(1,0,0,1,1634.6273193359375,35.19673156738281)" opacity="1" style="display: block;"><g opacity="1" transform="matrix(1,0,0,1,20.5,20.5)"><path stroke-linecap="butt" stroke-linejoin="miter" fill-opacity="0" stroke-miterlimit="4" stroke="rgb(27,43,103)" stroke-opacity="1" stroke-width="2" d=" M0,-18.5 C10.217000007629395,-18.5 18.5,-10.217000007629395 18.5,0 C18.5,10.217000007629395 10.217000007629395,18.5 0,18.5 C-10.217000007629395,18.5 -18.5,10.217000007629395 -18.5,0 C-18.5,-10.217000007629395 -10.217000007629395,-18.5 0,-18.5z"/></g><g opacity="1" transform="matrix(1,0,0,1,20.5,20.5)"><path fill="rgb(245,245,245)" fill-opacity="1" d=" M0,-8.5 C4.693999767303467,-8.5 8.5,-4.693999767303467 8.5,0 C8.5,4.693999767303467 4.693999767303467,8.5 0,8.5 C-4.693999767303467,8.5 -8.5,4.693999767303467 -8.5,0 C-8.5,-4.693999767303467 -4.693999767303467,-8.5 0,-8.5z"/></g></g><g transform="matrix(1,0,0,1,1380,147)" opacity="1" style="display: block;"><g opacity="1" transform="matrix(1,0,0,1,36.5,36.5)"><path stroke-linecap="butt" stroke-linejoin="miter" fill-opacity="0" stroke-miterlimit="4" stroke="rgb(64,105,235)" stroke-opacity="1" stroke-width="2" d=" M0,-34.5 C19.054000854492188,-34.5 34.5,-19.054000854492188 34.5,0 C34.5,19.054000854492188 19.054000854492188,34.5 0,34.5 C-19.054000854492188,34.5 -34.5,19.054000854492188 -34.5,0 C-34.5,-19.054000854492188 -19.054000854492188,-34.5 0,-34.5z"/></g></g><g clip-path="url(#__lottie_element_946)" transform="matrix(1,0,0,1,0,0)" opacity="1" style="display: block;"><g mask="url(#__lottie_element_982_1)" style="display: block;"><g transform="matrix(-0.5429491400718689,0.7850936055183411,-0.7850936055183411,-0.5429491400718689,1509.69580078125,-280.1288146972656)" opacity="1"><g opacity="1" transform="matrix(1.0190500020980835,0,0,1.0190500020980835,454.5,-196.25)"><path stroke-linecap="butt" stroke-linejoin="miter" fill-opacity="0" stroke-miterlimit="4" stroke="rgb(255,255,255)" stroke-opacity="1" stroke-width="9" d=" M0,-13.75 C7.588624954223633,-13.75 13.75,-7.588624954223633 13.75,0 C13.75,7.588624954223633 7.588624954223633,13.75 0,13.75 C-7.588624954223633,13.75 -13.75,7.588624954223633 -13.75,0 C-13.75,-7.588624954223633 -7.588624954223633,-13.75 0,-13.75z"/></g></g></g><g mask="url(#__lottie_element_982)" style="display: block;"><g transform="matrix(0.08135917782783508,-0.9966906309127808,0.9966906309127808,0.08135917782783508,1578.4407958984375,648.4290161132812)" opacity="1"><g opacity="1" transform="matrix(1,0,0,1,0,-0.125)"><g opacity="1" transform="matrix(0.5739560723304749,-0.8188861012458801,0.8188861012458801,0.5739560723304749,354.560302734375,284.08935546875)"><path fill="rgb(255,255,255)" fill-opacity="1" d=" M446.625,-214.875 C446.625,-214.875 446.25,-221.5 450.125,-221.5 C454,-221.5 453.875,-214.875 453.875,-214.875"/><path stroke-linecap="butt" stroke-linejoin="miter" fill-opacity="0" stroke-miterlimit="4" stroke="rgb(255,0,0)" stroke-opacity="1" stroke-width="0" d=" M446.625,-214.875 C446.625,-214.875 446.25,-221.5 450.125,-221.5 C454,-221.5 453.875,-214.875 453.875,-214.875"/></g><g opacity="1" transform="matrix(0.12701040506362915,-0.9919013977050781,0.9919013977050781,0.12701040506362915,590.197998046875,273.19000244140625)"><path fill="rgb(255,255,255)" fill-opacity="1" d=" M446.625,-214.875 C446.625,-214.875 446.25,-221.5 450.125,-221.5 C454,-221.5 453.875,-214.875 453.875,-214.875"/><path stroke-linecap="butt" stroke-linejoin="miter" fill-opacity="0" stroke-miterlimit="4" stroke="rgb(255,0,0)" stroke-opacity="1" stroke-width="0" d=" M446.625,-214.875 C446.625,-214.875 446.25,-221.5 450.125,-221.5 C454,-221.5 453.875,-214.875 453.875,-214.875"/></g><g opacity="1" transform="matrix(-0.34910884499549866,-0.9370821714401245,0.9370821714401245,-0.34910884499549866,793.7018432617188,153.90003967285156)"><path fill="rgb(255,255,255)" fill-opacity="1" d=" M446.625,-214.875 C446.625,-214.875 446.25,-221.5 450.125,-221.5 C454,-221.5 453.875,-214.875 453.875,-214.875"/><path stroke-linecap="butt" stroke-linejoin="miter" fill-opacity="0" stroke-miterlimit="4" stroke="rgb(255,0,0)" stroke-opacity="1" stroke-width="0" d=" M446.625,-214.875 C446.625,-214.875 446.25,-221.5 450.125,-221.5 C454,-221.5 453.875,-214.875 453.875,-214.875"/></g><g opacity="1" transform="matrix(-0.7450396418571472,-0.6670201420783997,0.6670201420783997,-0.7450396418571472,918.328125,-46.38026428222656)"><path fill="rgb(255,255,255)" fill-opacity="1" d=" M446.625,-214.875 C446.625,-214.875 446.25,-221.5 450.125,-221.5 C454,-221.5 453.875,-214.875 453.875,-214.875"/><path stroke-linecap="butt" stroke-linejoin="miter" fill-opacity="0" stroke-miterlimit="4" stroke="rgb(255,0,0)" stroke-opacity="1" stroke-width="0" d=" M446.625,-214.875 C446.625,-214.875 446.25,-221.5 450.125,-221.5 C454,-221.5 453.875,-214.875 453.875,-214.875"/></g><g opacity="1" transform="matrix(-0.9698387980461121,-0.24374715983867645,0.24374715983867645,-0.9698387980461121,935.4508056640625,-281.6476135253906)"><path fill="rgb(255,255,255)" fill-opacity="1" d=" M446.625,-214.875 C446.625,-214.875 446.25,-221.5 450.125,-221.5 C454,-221.5 453.875,-214.875 453.875,-214.875"/><path stroke-linecap="butt" stroke-linejoin="miter" fill-opacity="0" stroke-miterlimit="4" stroke="rgb(255,0,0)" stroke-opacity="1" stroke-width="0" d=" M446.625,-214.875 C446.625,-214.875 446.25,-221.5 450.125,-221.5 C454,-221.5 453.875,-214.875 453.875,-214.875"/></g><g opacity="1" transform="matrix(-0.9718711376190186,0.23551326990127563,-0.23551326990127563,-0.9718711376190186,841.136962890625,-497.86236572265625)"><path fill="rgb(255,255,255)" fill-opacity="1" d=" M446.625,-214.875 C446.625,-214.875 446.25,-221.5 450.125,-221.5 C454,-221.5 453.875,-214.875 453.875,-214.875"/><path stroke-linecap="butt" stroke-linejoin="miter" fill-opacity="0" stroke-miterlimit="4" stroke="rgb(255,0,0)" stroke-opacity="1" stroke-width="0" d=" M446.625,-214.875 C446.625,-214.875 446.25,-221.5 450.125,-221.5 C454,-221.5 453.875,-214.875 453.875,-214.875"/></g><g opacity="1" transform="matrix(-0.7506698369979858,0.6606775522232056,-0.6606775522232056,-0.7506698369979858,657.0499267578125,-645.3611450195312)"><path fill="rgb(255,255,255)" fill-opacity="1" d=" M446.625,-214.875 C446.625,-214.875 446.25,-221.5 450.125,-221.5 C454,-221.5 453.875,-214.875 453.875,-214.875"/><path stroke-linecap="butt" stroke-linejoin="miter" fill-opacity="0" stroke-miterlimit="4" stroke="rgb(255,0,0)" stroke-opacity="1" stroke-width="0" d=" M446.625,-214.875 C446.625,-214.875 446.25,-221.5 450.125,-221.5 C454,-221.5 453.875,-214.875 453.875,-214.875"/></g><g opacity="1" transform="matrix(-0.35704365372657776,0.9340876936912537,-0.9340876936912537,-0.35704365372657776,425.47344970703125,-690.2642211914062)"><path fill="rgb(255,255,255)" fill-opacity="1" d=" M446.625,-214.875 C446.625,-214.875 446.25,-221.5 450.125,-221.5 C454,-221.5 453.875,-214.875 453.875,-214.875"/><path stroke-linecap="butt" stroke-linejoin="miter" fill-opacity="0" stroke-miterlimit="4" stroke="rgb(255,0,0)" stroke-opacity="1" stroke-width="0" d=" M446.625,-214.875 C446.625,-214.875 446.25,-221.5 450.125,-221.5 C454,-221.5 453.875,-214.875 453.875,-214.875"/></g><g opacity="1" transform="matrix(0.11859355866909027,0.9929428696632385,-0.9929428696632385,0.11859355866909027,199.5995330810547,-622.257568359375)"><path fill="rgb(255,255,255)" fill-opacity="1" d=" M446.625,-214.875 C446.625,-214.875 446.25,-221.5 450.125,-221.5 C454,-221.5 453.875,-214.875 453.875,-214.875"/><path stroke-linecap="butt" stroke-linejoin="miter" fill-opacity="0" stroke-miterlimit="4" stroke="rgb(255,0,0)" stroke-opacity="1" stroke-width="0" d=" M446.625,-214.875 C446.625,-214.875 446.25,-221.5 450.125,-221.5 C454,-221.5 453.875,-214.875 453.875,-214.875"/></g><g opacity="1" transform="matrix(0.5669904351234436,0.8237243294715881,-0.8237243294715881,0.5669904351234436,31.310150146484375,-456.9620361328125)"><path fill="rgb(255,255,255)" fill-opacity="1" d=" M446.625,-214.875 C446.625,-214.875 446.25,-221.5 450.125,-221.5 C454,-221.5 453.875,-214.875 453.875,-214.875"/><path stroke-linecap="butt" stroke-linejoin="miter" fill-opacity="0" stroke-miterlimit="4" stroke="rgb(255,0,0)" stroke-opacity="1" stroke-width="0" d=" M446.625,-214.875 C446.625,-214.875 446.25,-221.5 450.125,-221.5 C454,-221.5 453.875,-214.875 453.875,-214.875"/></g><g opacity="1" transform="matrix(0.8851526379585266,0.4653007388114929,-0.4653007388114929,0.8851526379585266,-40.739501953125,-232.34507751464844)"><path fill="rgb(255,255,255)" fill-opacity="1" d=" M446.625,-214.875 C446.625,-214.875 446.25,-221.5 450.125,-221.5 C454,-221.5 453.875,-214.875 453.875,-214.875"/><path stroke-linecap="butt" stroke-linejoin="miter" fill-opacity="0" stroke-miterlimit="4" stroke="rgb(255,0,0)" stroke-opacity="1" stroke-width="0" d=" M446.625,-214.875 C446.625,-214.875 446.25,-221.5 450.125,-221.5 C454,-221.5 453.875,-214.875 453.875,-214.875"/></g><g opacity="1" transform="matrix(1,0,0,1,0,0)"><path fill="rgb(255,255,255)" fill-opacity="1" d=" M446.625,-214.875 C446.625,-214.875 446.25,-221.5 450.125,-221.5 C454,-221.5 453.875,-214.875 453.875,-214.875"/><path stroke-linecap="butt" stroke-linejoin="miter" fill-opacity="0" stroke-miterlimit="4" stroke="rgb(255,0,0)" stroke-opacity="1" stroke-width="0" d=" M446.625,-214.875 C446.625,-214.875 446.25,-221.5 450.125,-221.5 C454,-221.5 453.875,-214.875 453.875,-214.875"/></g></g></g></g><g mask="url(#__lottie_element_982)" style="display: block;"><g transform="matrix(1.181820034980774,0,0,1.181820034980774,884.86279296875,417.8412780761719)" opacity="1"><g opacity="1" transform="matrix(1,0,0,1,450.375,-198.5)"><path fill="rgb(21,27,54)" fill-opacity="1" d=" M0,-9.625 C5.312037467956543,-9.625 9.625,-5.312037467956543 9.625,0 C9.625,5.312037467956543 5.312037467956543,9.625 0,9.625 C-5.312037467956543,9.625 -9.625,5.312037467956543 -9.625,0 C-9.625,-5.312037467956543 -5.312037467956543,-9.625 0,-9.625z"/><path stroke-linecap="butt" stroke-linejoin="miter" fill-opacity="0" stroke-miterlimit="4" stroke="rgb(18,0,255)" stroke-opacity="1" stroke-width="0" d=" M0,-9.625 C5.312037467956543,-9.625 9.625,-5.312037467956543 9.625,0 C9.625,5.312037467956543 5.312037467956543,9.625 0,9.625 C-5.312037467956543,9.625 -9.625,5.312037467956543 -9.625,0 C-9.625,-5.312037467956543 -5.312037467956543,-9.625 0,-9.625z"/></g></g></g><g style="display: none;"><g><g><path/></g></g></g><g mask="url(#__lottie_element_982)" style="display: block;"><g transform="matrix(-0.4829343259334564,0.542668879032135,-0.542668879032135,-0.4829343259334564,1434.9031982421875,243.31190490722656)" opacity="1"><g opacity="1" transform="matrix(1,0,0,1,22.70199966430664,22.70199966430664)"><path fill="rgb(255,255,255)" fill-opacity="1" d=" M22.45199966430664,-1.1030000448226929 C22.45199966430664,-1.1030000448226929 21.972000122070312,-4.750999927520752 21.972000122070312,-4.750999927520752 C21.972000122070312,-4.750999927520752 19.648000717163086,-5.267000198364258 19.648000717163086,-5.267000198364258 C19.648000717163086,-5.267000198364258 16.5939998626709,-5.581999778747559 16.5939998626709,-5.581999778747559 C16.5939998626709,-5.581999778747559 15.678999900817871,-7.789999961853027 15.678999900817871,-7.789999961853027 C15.678999900817871,-7.789999961853027 17.615999221801758,-10.17199993133545 17.615999221801758,-10.17199993133545 C17.615999221801758,-10.17199993133545 18.893999099731445,-12.180000305175781 18.893999099731445,-12.180000305175781 C18.893999099731445,-12.180000305175781 16.65399932861328,-15.098999977111816 16.65399932861328,-15.098999977111816 C16.65399932861328,-15.098999977111816 14.383999824523926,-14.383999824523926 14.383999824523926,-14.383999824523926 C14.383999824523926,-14.383999824523926 11.583999633789062,-13.130000114440918 11.583999633789062,-13.130000114440918 C11.583999633789062,-13.130000114440918 9.684000015258789,-14.585000038146973 9.684000015258789,-14.585000038146973 C9.684000015258789,-14.585000038146973 10.170000076293945,-17.615999221801758 10.170000076293945,-17.615999221801758 C10.170000076293945,-17.615999221801758 10.270000457763672,-19.993999481201172 10.270000457763672,-19.993999481201172 C10.270000457763672,-19.993999481201172 6.869999885559082,-21.402000427246094 6.869999885559082,-21.402000427246094 C6.869999885559082,-21.402000427246094 5.261000156402588,-19.648000717163086 5.261000156402588,-19.648000717163086 C5.261000156402588,-19.648000717163086 3.4609999656677246,-17.160999298095703 3.4609999656677246,-17.160999298095703 C3.4609999656677246,-17.160999298095703 1.090999960899353,-17.472999572753906 1.090999960899353,-17.472999572753906 C1.090999960899353,-17.472999572753906 -0.003000000026077032,-20.340999603271484 -0.003000000026077032,-20.340999603271484 C-0.003000000026077032,-20.340999603271484 -1.1030000448226929,-22.45199966430664 -1.1030000448226929,-22.45199966430664 C-1.1030000448226929,-22.45199966430664 -4.750999927520752,-21.972000122070312 -4.750999927520752,-21.972000122070312 C-4.750999927520752,-21.972000122070312 -5.267000198364258,-19.648000717163086 -5.267000198364258,-19.648000717163086 C-5.267000198364258,-19.648000717163086 -5.581999778747559,-16.5939998626709 -5.581999778747559,-16.5939998626709 C-5.581999778747559,-16.5939998626709 -7.789999961853027,-15.678999900817871 -7.789999961853027,-15.678999900817871 C-7.789999961853027,-15.678999900817871 -10.17199993133545,-17.615999221801758 -10.17199993133545,-17.615999221801758 C-10.17199993133545,-17.615999221801758 -12.180000305175781,-18.893999099731445 -12.180000305175781,-18.893999099731445 C-12.180000305175781,-18.893999099731445 -15.100000381469727,-16.65399932861328 -15.100000381469727,-16.65399932861328 C-15.100000381469727,-16.65399932861328 -14.383999824523926,-14.383999824523926 -14.383999824523926,-14.383999824523926 C-14.383999824523926,-14.383999824523926 -13.130000114440918,-11.583999633789062 -13.130000114440918,-11.583999633789062 C-13.130000114440918,-11.583999633789062 -14.585000038146973,-9.684000015258789 -14.585000038146973,-9.684000015258789 C-14.585000038146973,-9.684000015258789 -17.615999221801758,-10.170000076293945 -17.615999221801758,-10.170000076293945 C-17.615999221801758,-10.170000076293945 -19.993999481201172,-10.270000457763672 -19.993999481201172,-10.270000457763672 C-19.993999481201172,-10.270000457763672 -21.402000427246094,-6.869999885559082 -21.402000427246094,-6.869999885559082 C-21.402000427246094,-6.869999885559082 -19.648000717163086,-5.261000156402588 -19.648000717163086,-5.261000156402588 C-19.648000717163086,-5.261000156402588 -17.160999298095703,-3.4609999656677246 -17.160999298095703,-3.4609999656677246 C-17.160999298095703,-3.4609999656677246 -17.474000930786133,-1.090999960899353 -17.474000930786133,-1.090999960899353 C-17.474000930786133,-1.090999960899353 -20.340999603271484,0.003000000026077032 -20.340999603271484,0.003000000026077032 C-20.340999603271484,0.003000000026077032 -22.45199966430664,1.1030000448226929 -22.45199966430664,1.1030000448226929 C-22.45199966430664,1.1030000448226929 -21.972999572753906,4.750999927520752 -21.972999572753906,4.750999927520752 C-21.972999572753906,4.750999927520752 -19.648000717163086,5.267000198364258 -19.648000717163086,5.267000198364258 C-19.648000717163086,5.267000198364258 -16.5939998626709,5.581999778747559 -16.5939998626709,5.581999778747559 C-16.5939998626709,5.581999778747559 -15.678999900817871,7.789999961853027 -15.678999900817871,7.789999961853027 C-15.678999900817871,7.789999961853027 -17.615999221801758,10.17199993133545 -17.615999221801758,10.17199993133545 C-17.615999221801758,10.17199993133545 -18.893999099731445,12.180000305175781 -18.893999099731445,12.180000305175781 C-18.893999099731445,12.180000305175781 -16.65399932861328,15.098999977111816 -16.65399932861328,15.098999977111816 C-16.65399932861328,15.098999977111816 -14.383999824523926,14.383999824523926 -14.383999824523926,14.383999824523926 C-14.383999824523926,14.383999824523926 -11.583999633789062,13.130000114440918 -11.583999633789062,13.130000114440918 C-11.583999633789062,13.130000114440918 -9.684000015258789,14.585000038146973 -9.684000015258789,14.585000038146973 C-9.684000015258789,14.585000038146973 -10.170000076293945,17.615999221801758 -10.170000076293945,17.615999221801758 C-10.170000076293945,17.615999221801758 -10.270000457763672,19.993999481201172 -10.270000457763672,19.993999481201172 C-10.270000457763672,19.993999481201172 -6.869999885559082,21.402000427246094 -6.869999885559082,21.402000427246094 C-6.869999885559082,21.402000427246094 -5.261000156402588,19.648000717163086 -5.261000156402588,19.648000717163086 C-5.261000156402588,19.648000717163086 -3.4609999656677246,17.160999298095703 -3.4609999656677246,17.160999298095703 C-3.4609999656677246,17.160999298095703 -1.090999960899353,17.472999572753906 -1.090999960899353,17.472999572753906 C-1.090999960899353,17.472999572753906 0.003000000026077032,20.340999603271484 0.003000000026077032,20.340999603271484 C0.003000000026077032,20.340999603271484 1.1030000448226929,22.45199966430664 1.1030000448226929,22.45199966430664 C1.1030000448226929,22.45199966430664 4.750999927520752,21.972000122070312 4.750999927520752,21.972000122070312 C4.750999927520752,21.972000122070312 5.267000198364258,19.648000717163086 5.267000198364258,19.648000717163086 C5.267000198364258,19.648000717163086 5.581999778747559,16.5939998626709 5.581999778747559,16.5939998626709 C5.581999778747559,16.5939998626709 7.789999961853027,15.678999900817871 7.789999961853027,15.678999900817871 C7.789999961853027,15.678999900817871 10.17199993133545,17.615999221801758 10.17199993133545,17.615999221801758 C10.17199993133545,17.615999221801758 12.180000305175781,18.893999099731445 12.180000305175781,18.893999099731445 C12.180000305175781,18.893999099731445 15.098999977111816,16.65399932861328 15.098999977111816,16.65399932861328 C15.098999977111816,16.65399932861328 14.383999824523926,14.383999824523926 14.383999824523926,14.383999824523926 C14.383999824523926,14.383999824523926 13.130000114440918,11.583999633789062 13.130000114440918,11.583999633789062 C13.130000114440918,11.583999633789062 14.585000038146973,9.684000015258789 14.585000038146973,9.684000015258789 C14.585000038146973,9.684000015258789 17.615999221801758,10.170000076293945 17.615999221801758,10.170000076293945 C17.615999221801758,10.170000076293945 19.993999481201172,10.270000457763672 19.993999481201172,10.270000457763672 C19.993999481201172,10.270000457763672 21.400999069213867,6.869999885559082 21.400999069213867,6.869999885559082 C21.400999069213867,6.869999885559082 19.648000717163086,5.261000156402588 19.648000717163086,5.261000156402588 C19.648000717163086,5.261000156402588 17.160999298095703,3.4609999656677246 17.160999298095703,3.4609999656677246 C17.160999298095703,3.4609999656677246 17.472999572753906,1.090999960899353 17.472999572753906,1.090999960899353 C17.472999572753906,1.090999960899353 20.340999603271484,-0.003000000026077032 20.340999603271484,-0.003000000026077032 C20.340999603271484,-0.003000000026077032 22.45199966430664,-1.1030000448226929 22.45199966430664,-1.1030000448226929z M0.004000000189989805,-9.536999702453613 C5.269999980926514,-9.536999702453613 9.538000106811523,-5.26800012588501 9.538000106811523,-0.003000000026077032 C9.538000106811523,5.263000011444092 5.269999980926514,9.531000137329102 0.004000000189989805,9.531000137329102 C-5.26200008392334,9.531000137329102 -9.529999732971191,5.263000011444092 -9.529999732971191,-0.003000000026077032 C-9.529999732971191,-5.26800012588501 -5.26200008392334,-9.536999702453613 0.004000000189989805,-9.536999702453613z"/></g></g></g><g style="display: none;"><g><g><path/></g></g></g><g style="display: none;"><g><g><path/></g></g></g><g mask="url(#__lottie_element_982)" style="display: block;"><g transform="matrix(-1.0797349214553833,-1.2132883071899414,1.2132883071899414,-1.0797349214553833,1385.5880126953125,342.4742126464844)" opacity="1"><g opacity="1" transform="matrix(1,0,0,1,22.70199966430664,22.70199966430664)"><path fill="rgb(255,255,255)" fill-opacity="1" d=" M22.45199966430664,-1.1030000448226929 C22.45199966430664,-1.1030000448226929 21.972000122070312,-4.750999927520752 21.972000122070312,-4.750999927520752 C21.972000122070312,-4.750999927520752 19.648000717163086,-5.267000198364258 19.648000717163086,-5.267000198364258 C19.648000717163086,-5.267000198364258 16.5939998626709,-5.581999778747559 16.5939998626709,-5.581999778747559 C16.5939998626709,-5.581999778747559 15.678999900817871,-7.789999961853027 15.678999900817871,-7.789999961853027 C15.678999900817871,-7.789999961853027 17.615999221801758,-10.17199993133545 17.615999221801758,-10.17199993133545 C17.615999221801758,-10.17199993133545 18.893999099731445,-12.180000305175781 18.893999099731445,-12.180000305175781 C18.893999099731445,-12.180000305175781 16.65399932861328,-15.098999977111816 16.65399932861328,-15.098999977111816 C16.65399932861328,-15.098999977111816 14.383999824523926,-14.383999824523926 14.383999824523926,-14.383999824523926 C14.383999824523926,-14.383999824523926 11.583999633789062,-13.130000114440918 11.583999633789062,-13.130000114440918 C11.583999633789062,-13.130000114440918 9.684000015258789,-14.585000038146973 9.684000015258789,-14.585000038146973 C9.684000015258789,-14.585000038146973 10.170000076293945,-17.615999221801758 10.170000076293945,-17.615999221801758 C10.170000076293945,-17.615999221801758 10.270000457763672,-19.993999481201172 10.270000457763672,-19.993999481201172 C10.270000457763672,-19.993999481201172 6.869999885559082,-21.402000427246094 6.869999885559082,-21.402000427246094 C6.869999885559082,-21.402000427246094 5.261000156402588,-19.648000717163086 5.261000156402588,-19.648000717163086 C5.261000156402588,-19.648000717163086 3.4609999656677246,-17.160999298095703 3.4609999656677246,-17.160999298095703 C3.4609999656677246,-17.160999298095703 1.090999960899353,-17.472999572753906 1.090999960899353,-17.472999572753906 C1.090999960899353,-17.472999572753906 -0.003000000026077032,-20.340999603271484 -0.003000000026077032,-20.340999603271484 C-0.003000000026077032,-20.340999603271484 -1.1030000448226929,-22.45199966430664 -1.1030000448226929,-22.45199966430664 C-1.1030000448226929,-22.45199966430664 -4.750999927520752,-21.972000122070312 -4.750999927520752,-21.972000122070312 C-4.750999927520752,-21.972000122070312 -5.267000198364258,-19.648000717163086 -5.267000198364258,-19.648000717163086 C-5.267000198364258,-19.648000717163086 -5.581999778747559,-16.5939998626709 -5.581999778747559,-16.5939998626709 C-5.581999778747559,-16.5939998626709 -7.789999961853027,-15.678999900817871 -7.789999961853027,-15.678999900817871 C-7.789999961853027,-15.678999900817871 -10.17199993133545,-17.615999221801758 -10.17199993133545,-17.615999221801758 C-10.17199993133545,-17.615999221801758 -12.180000305175781,-18.893999099731445 -12.180000305175781,-18.893999099731445 C-12.180000305175781,-18.893999099731445 -15.100000381469727,-16.65399932861328 -15.100000381469727,-16.65399932861328 C-15.100000381469727,-16.65399932861328 -14.383999824523926,-14.383999824523926 -14.383999824523926,-14.383999824523926 C-14.383999824523926,-14.383999824523926 -13.130000114440918,-11.583999633789062 -13.130000114440918,-11.583999633789062 C-13.130000114440918,-11.583999633789062 -14.585000038146973,-9.684000015258789 -14.585000038146973,-9.684000015258789 C-14.585000038146973,-9.684000015258789 -17.615999221801758,-10.170000076293945 -17.615999221801758,-10.170000076293945 C-17.615999221801758,-10.170000076293945 -19.993999481201172,-10.270000457763672 -19.993999481201172,-10.270000457763672 C-19.993999481201172,-10.270000457763672 -21.402000427246094,-6.869999885559082 -21.402000427246094,-6.869999885559082 C-21.402000427246094,-6.869999885559082 -19.648000717163086,-5.261000156402588 -19.648000717163086,-5.261000156402588 C-19.648000717163086,-5.261000156402588 -17.160999298095703,-3.4609999656677246 -17.160999298095703,-3.4609999656677246 C-17.160999298095703,-3.4609999656677246 -17.474000930786133,-1.090999960899353 -17.474000930786133,-1.090999960899353 C-17.474000930786133,-1.090999960899353 -20.340999603271484,0.003000000026077032 -20.340999603271484,0.003000000026077032 C-20.340999603271484,0.003000000026077032 -22.45199966430664,1.1030000448226929 -22.45199966430664,1.1030000448226929 C-22.45199966430664,1.1030000448226929 -21.972999572753906,4.750999927520752 -21.972999572753906,4.750999927520752 C-21.972999572753906,4.750999927520752 -19.648000717163086,5.267000198364258 -19.648000717163086,5.267000198364258 C-19.648000717163086,5.267000198364258 -16.5939998626709,5.581999778747559 -16.5939998626709,5.581999778747559 C-16.5939998626709,5.581999778747559 -15.678999900817871,7.789999961853027 -15.678999900817871,7.789999961853027 C-15.678999900817871,7.789999961853027 -17.615999221801758,10.17199993133545 -17.615999221801758,10.17199993133545 C-17.615999221801758,10.17199993133545 -18.893999099731445,12.180000305175781 -18.893999099731445,12.180000305175781 C-18.893999099731445,12.180000305175781 -16.65399932861328,15.098999977111816 -16.65399932861328,15.098999977111816 C-16.65399932861328,15.098999977111816 -14.383999824523926,14.383999824523926 -14.383999824523926,14.383999824523926 C-14.383999824523926,14.383999824523926 -11.583999633789062,13.130000114440918 -11.583999633789062,13.130000114440918 C-11.583999633789062,13.130000114440918 -9.684000015258789,14.585000038146973 -9.684000015258789,14.585000038146973 C-9.684000015258789,14.585000038146973 -10.170000076293945,17.615999221801758 -10.170000076293945,17.615999221801758 C-10.170000076293945,17.615999221801758 -10.270000457763672,19.993999481201172 -10.270000457763672,19.993999481201172 C-10.270000457763672,19.993999481201172 -6.869999885559082,21.402000427246094 -6.869999885559082,21.402000427246094 C-6.869999885559082,21.402000427246094 -5.261000156402588,19.648000717163086 -5.261000156402588,19.648000717163086 C-5.261000156402588,19.648000717163086 -3.4609999656677246,17.160999298095703 -3.4609999656677246,17.160999298095703 C-3.4609999656677246,17.160999298095703 -1.090999960899353,17.472999572753906 -1.090999960899353,17.472999572753906 C-1.090999960899353,17.472999572753906 0.003000000026077032,20.340999603271484 0.003000000026077032,20.340999603271484 C0.003000000026077032,20.340999603271484 1.1030000448226929,22.45199966430664 1.1030000448226929,22.45199966430664 C1.1030000448226929,22.45199966430664 4.750999927520752,21.972000122070312 4.750999927520752,21.972000122070312 C4.750999927520752,21.972000122070312 5.267000198364258,19.648000717163086 5.267000198364258,19.648000717163086 C5.267000198364258,19.648000717163086 5.581999778747559,16.5939998626709 5.581999778747559,16.5939998626709 C5.581999778747559,16.5939998626709 7.789999961853027,15.678999900817871 7.789999961853027,15.678999900817871 C7.789999961853027,15.678999900817871 10.17199993133545,17.615999221801758 10.17199993133545,17.615999221801758 C10.17199993133545,17.615999221801758 12.180000305175781,18.893999099731445 12.180000305175781,18.893999099731445 C12.180000305175781,18.893999099731445 15.098999977111816,16.65399932861328 15.098999977111816,16.65399932861328 C15.098999977111816,16.65399932861328 14.383999824523926,14.383999824523926 14.383999824523926,14.383999824523926 C14.383999824523926,14.383999824523926 13.130000114440918,11.583999633789062 13.130000114440918,11.583999633789062 C13.130000114440918,11.583999633789062 14.585000038146973,9.684000015258789 14.585000038146973,9.684000015258789 C14.585000038146973,9.684000015258789 17.615999221801758,10.170000076293945 17.615999221801758,10.170000076293945 C17.615999221801758,10.170000076293945 19.993999481201172,10.270000457763672 19.993999481201172,10.270000457763672 C19.993999481201172,10.270000457763672 21.400999069213867,6.869999885559082 21.400999069213867,6.869999885559082 C21.400999069213867,6.869999885559082 19.648000717163086,5.261000156402588 19.648000717163086,5.261000156402588 C19.648000717163086,5.261000156402588 17.160999298095703,3.4609999656677246 17.160999298095703,3.4609999656677246 C17.160999298095703,3.4609999656677246 17.472999572753906,1.090999960899353 17.472999572753906,1.090999960899353 C17.472999572753906,1.090999960899353 20.340999603271484,-0.003000000026077032 20.340999603271484,-0.003000000026077032 C20.340999603271484,-0.003000000026077032 22.45199966430664,-1.1030000448226929 22.45199966430664,-1.1030000448226929z M0.004000000189989805,-9.536999702453613 C5.269999980926514,-9.536999702453613 9.538000106811523,-5.26800012588501 9.538000106811523,-0.003000000026077032 C9.538000106811523,5.263000011444092 5.269999980926514,9.531000137329102 0.004000000189989805,9.531000137329102 C-5.26200008392334,9.531000137329102 -9.529999732971191,5.263000011444092 -9.529999732971191,-0.003000000026077032 C-9.529999732971191,-5.26800012588501 -5.26200008392334,-9.536999702453613 0.004000000189989805,-9.536999702453613z"/></g></g></g><g mask="url(#__lottie_element_982)" style="display: block;"><g transform="matrix(-0.5429491400718689,0.7850936055183411,-0.7850936055183411,-0.5429491400718689,1531.2237548828125,-143.32281494140625)" opacity="1"><g opacity="1" transform="matrix(1.0190500020980835,0,0,1.0190500020980835,454.5,-196.25)"><path stroke-linecap="butt" stroke-linejoin="miter" fill-opacity="0" stroke-miterlimit="4" stroke="rgb(255,255,255)" stroke-opacity="1" stroke-width="9" d=" M0,-13.75 C7.588624954223633,-13.75 13.75,-7.588624954223633 13.75,0 C13.75,7.588624954223633 7.588624954223633,13.75 0,13.75 C-7.588624954223633,13.75 -13.75,7.588624954223633 -13.75,0 C-13.75,-7.588624954223633 -7.588624954223633,-13.75 0,-13.75z"/></g></g></g><g mask="url(#__lottie_element_982)" style="display: block;"><g transform="matrix(0.08135917782783508,-0.9966906309127808,0.9966906309127808,0.08135917782783508,1599.9688720703125,785.2350463867188)" opacity="1"><g opacity="1" transform="matrix(1,0,0,1,0,-0.125)"><g opacity="1" transform="matrix(0.5739560723304749,-0.8188861012458801,0.8188861012458801,0.5739560723304749,354.560302734375,284.08935546875)"><path fill="rgb(255,255,255)" fill-opacity="1" d=" M446.625,-214.875 C446.625,-214.875 446.25,-221.5 450.125,-221.5 C454,-221.5 453.875,-214.875 453.875,-214.875"/><path stroke-linecap="butt" stroke-linejoin="miter" fill-opacity="0" stroke-miterlimit="4" stroke="rgb(255,0,0)" stroke-opacity="1" stroke-width="0" d=" M446.625,-214.875 C446.625,-214.875 446.25,-221.5 450.125,-221.5 C454,-221.5 453.875,-214.875 453.875,-214.875"/></g><g opacity="1" transform="matrix(0.12701040506362915,-0.9919013977050781,0.9919013977050781,0.12701040506362915,590.197998046875,273.19000244140625)"><path fill="rgb(255,255,255)" fill-opacity="1" d=" M446.625,-214.875 C446.625,-214.875 446.25,-221.5 450.125,-221.5 C454,-221.5 453.875,-214.875 453.875,-214.875"/><path stroke-linecap="butt" stroke-linejoin="miter" fill-opacity="0" stroke-miterlimit="4" stroke="rgb(255,0,0)" stroke-opacity="1" stroke-width="0" d=" M446.625,-214.875 C446.625,-214.875 446.25,-221.5 450.125,-221.5 C454,-221.5 453.875,-214.875 453.875,-214.875"/></g><g opacity="1" transform="matrix(-0.34910884499549866,-0.9370821714401245,0.9370821714401245,-0.34910884499549866,793.7018432617188,153.90003967285156)"><path fill="rgb(255,255,255)" fill-opacity="1" d=" M446.625,-214.875 C446.625,-214.875 446.25,-221.5 450.125,-221.5 C454,-221.5 453.875,-214.875 453.875,-214.875"/><path stroke-linecap="butt" stroke-linejoin="miter" fill-opacity="0" stroke-miterlimit="4" stroke="rgb(255,0,0)" stroke-opacity="1" stroke-width="0" d=" M446.625,-214.875 C446.625,-214.875 446.25,-221.5 450.125,-221.5 C454,-221.5 453.875,-214.875 453.875,-214.875"/></g><g opacity="1" transform="matrix(-0.7450396418571472,-0.6670201420783997,0.6670201420783997,-0.7450396418571472,918.328125,-46.38026428222656)"><path fill="rgb(255,255,255)" fill-opacity="1" d=" M446.625,-214.875 C446.625,-214.875 446.25,-221.5 450.125,-221.5 C454,-221.5 453.875,-214.875 453.875,-214.875"/><path stroke-linecap="butt" stroke-linejoin="miter" fill-opacity="0" stroke-miterlimit="4" stroke="rgb(255,0,0)" stroke-opacity="1" stroke-width="0" d=" M446.625,-214.875 C446.625,-214.875 446.25,-221.5 450.125,-221.5 C454,-221.5 453.875,-214.875 453.875,-214.875"/></g><g opacity="1" transform="matrix(-0.9698387980461121,-0.24374715983867645,0.24374715983867645,-0.9698387980461121,935.4508056640625,-281.6476135253906)"><path fill="rgb(255,255,255)" fill-opacity="1" d=" M446.625,-214.875 C446.625,-214.875 446.25,-221.5 450.125,-221.5 C454,-221.5 453.875,-214.875 453.875,-214.875"/><path stroke-linecap="butt" stroke-linejoin="miter" fill-opacity="0" stroke-miterlimit="4" stroke="rgb(255,0,0)" stroke-opacity="1" stroke-width="0" d=" M446.625,-214.875 C446.625,-214.875 446.25,-221.5 450.125,-221.5 C454,-221.5 453.875,-214.875 453.875,-214.875"/></g><g opacity="1" transform="matrix(-0.9718711376190186,0.23551326990127563,-0.23551326990127563,-0.9718711376190186,841.136962890625,-497.86236572265625)"><path fill="rgb(255,255,255)" fill-opacity="1" d=" M446.625,-214.875 C446.625,-214.875 446.25,-221.5 450.125,-221.5 C454,-221.5 453.875,-214.875 453.875,-214.875"/><path stroke-linecap="butt" stroke-linejoin="miter" fill-opacity="0" stroke-miterlimit="4" stroke="rgb(255,0,0)" stroke-opacity="1" stroke-width="0" d=" M446.625,-214.875 C446.625,-214.875 446.25,-221.5 450.125,-221.5 C454,-221.5 453.875,-214.875 453.875,-214.875"/></g><g opacity="1" transform="matrix(-0.7506698369979858,0.6606775522232056,-0.6606775522232056,-0.7506698369979858,657.0499267578125,-645.3611450195312)"><path fill="rgb(255,255,255)" fill-opacity="1" d=" M446.625,-214.875 C446.625,-214.875 446.25,-221.5 450.125,-221.5 C454,-221.5 453.875,-214.875 453.875,-214.875"/><path stroke-linecap="butt" stroke-linejoin="miter" fill-opacity="0" stroke-miterlimit="4" stroke="rgb(255,0,0)" stroke-opacity="1" stroke-width="0" d=" M446.625,-214.875 C446.625,-214.875 446.25,-221.5 450.125,-221.5 C454,-221.5 453.875,-214.875 453.875,-214.875"/></g><g opacity="1" transform="matrix(-0.35704365372657776,0.9340876936912537,-0.9340876936912537,-0.35704365372657776,425.47344970703125,-690.2642211914062)"><path fill="rgb(255,255,255)" fill-opacity="1" d=" M446.625,-214.875 C446.625,-214.875 446.25,-221.5 450.125,-221.5 C454,-221.5 453.875,-214.875 453.875,-214.875"/><path stroke-linecap="butt" stroke-linejoin="miter" fill-opacity="0" stroke-miterlimit="4" stroke="rgb(255,0,0)" stroke-opacity="1" stroke-width="0" d=" M446.625,-214.875 C446.625,-214.875 446.25,-221.5 450.125,-221.5 C454,-221.5 453.875,-214.875 453.875,-214.875"/></g><g opacity="1" transform="matrix(0.11859355866909027,0.9929428696632385,-0.9929428696632385,0.11859355866909027,199.5995330810547,-622.257568359375)"><path fill="rgb(255,255,255)" fill-opacity="1" d=" M446.625,-214.875 C446.625,-214.875 446.25,-221.5 450.125,-221.5 C454,-221.5 453.875,-214.875 453.875,-214.875"/><path stroke-linecap="butt" stroke-linejoin="miter" fill-opacity="0" stroke-miterlimit="4" stroke="rgb(255,0,0)" stroke-opacity="1" stroke-width="0" d=" M446.625,-214.875 C446.625,-214.875 446.25,-221.5 450.125,-221.5 C454,-221.5 453.875,-214.875 453.875,-214.875"/></g><g opacity="1" transform="matrix(0.5669904351234436,0.8237243294715881,-0.8237243294715881,0.5669904351234436,31.310150146484375,-456.9620361328125)"><path fill="rgb(255,255,255)" fill-opacity="1" d=" M446.625,-214.875 C446.625,-214.875 446.25,-221.5 450.125,-221.5 C454,-221.5 453.875,-214.875 453.875,-214.875"/><path stroke-linecap="butt" stroke-linejoin="miter" fill-opacity="0" stroke-miterlimit="4" stroke="rgb(255,0,0)" stroke-opacity="1" stroke-width="0" d=" M446.625,-214.875 C446.625,-214.875 446.25,-221.5 450.125,-221.5 C454,-221.5 453.875,-214.875 453.875,-214.875"/></g><g opacity="1" transform="matrix(0.8851526379585266,0.4653007388114929,-0.4653007388114929,0.8851526379585266,-40.739501953125,-232.34507751464844)"><path fill="rgb(255,255,255)" fill-opacity="1" d=" M446.625,-214.875 C446.625,-214.875 446.25,-221.5 450.125,-221.5 C454,-221.5 453.875,-214.875 453.875,-214.875"/><path stroke-linecap="butt" stroke-linejoin="miter" fill-opacity="0" stroke-miterlimit="4" stroke="rgb(255,0,0)" stroke-opacity="1" stroke-width="0" d=" M446.625,-214.875 C446.625,-214.875 446.25,-221.5 450.125,-221.5 C454,-221.5 453.875,-214.875 453.875,-214.875"/></g><g opacity="1" transform="matrix(1,0,0,1,0,0)"><path fill="rgb(255,255,255)" fill-opacity="1" d=" M446.625,-214.875 C446.625,-214.875 446.25,-221.5 450.125,-221.5 C454,-221.5 453.875,-214.875 453.875,-214.875"/><path stroke-linecap="butt" stroke-linejoin="miter" fill-opacity="0" stroke-miterlimit="4" stroke="rgb(255,0,0)" stroke-opacity="1" stroke-width="0" d=" M446.625,-214.875 C446.625,-214.875 446.25,-221.5 450.125,-221.5 C454,-221.5 453.875,-214.875 453.875,-214.875"/></g></g></g></g><g mask="url(#__lottie_element_982)" style="display: block;"><g transform="matrix(0.49946844577789307,1.0710973739624023,-1.0710973739624023,0.49946844577789307,1000.8109741210938,-63.36210632324219)" opacity="1"><g opacity="1" transform="matrix(1,0,0,1,450.375,-198.5)"><path fill="rgb(21,27,54)" fill-opacity="1" d=" M0,-9.625 C5.312037467956543,-9.625 9.625,-5.312037467956543 9.625,0 C9.625,5.312037467956543 5.312037467956543,9.625 0,9.625 C-5.312037467956543,9.625 -9.625,5.312037467956543 -9.625,0 C-9.625,-5.312037467956543 -5.312037467956543,-9.625 0,-9.625z"/><path stroke-linecap="butt" stroke-linejoin="miter" fill-opacity="0" stroke-miterlimit="4" stroke="rgb(18,0,255)" stroke-opacity="1" stroke-width="0" d=" M0,-9.625 C5.312037467956543,-9.625 9.625,-5.312037467956543 9.625,0 C9.625,5.312037467956543 5.312037467956543,9.625 0,9.625 C-5.312037467956543,9.625 -9.625,5.312037467956543 -9.625,0 C-9.625,-5.312037467956543 -5.312037467956543,-9.625 0,-9.625z"/></g></g></g></g><g clip-path="url(#__lottie_element_903)" style="display: none;"><g mask="url(#__lottie_element_939_1)" style="display: none;"><g><g><path stroke-linecap="butt" stroke-linejoin="miter" fill-opacity="0" stroke-miterlimit="4"/></g></g></g><g mask="url(#__lottie_element_932_2)" style="display: none;"><g><g/></g></g><g style="display: none;"><g><g><path/><path stroke-linecap="butt" stroke-linejoin="miter" fill-opacity="0" stroke-miterlimit="4"/></g></g></g><g style="display: none;"><g><g><path/></g></g></g><g style="display: none;"><g><g><path/></g></g></g><g style="display: none;"><g><g><path/></g></g></g><g style="display: none;"><g><g><path/></g></g></g><g style="display: none;"><g><g><path/></g></g></g><g style="display: none;"><g><g><path stroke-linecap="butt" stroke-linejoin="miter" fill-opacity="0" stroke-miterlimit="4"/></g></g></g><g mask="url(#__lottie_element_907_2)" style="display: none;"><g><g/></g></g><g style="display: none;"><g><g><path/><path stroke-linecap="butt" stroke-linejoin="miter" fill-opacity="0" stroke-miterlimit="4"/></g></g></g></g><g transform="matrix(1,0,0,1,989.75,297.75)" opacity="1" style="display: block;"><g opacity="1" transform="matrix(1,0,0,1,8.75,8.75)"><path fill="rgb(13,222,184)" fill-opacity="1" d=" M0,-8.5 C4.693999767303467,-8.5 8.5,-4.693999767303467 8.5,0 C8.5,4.693999767303467 4.693999767303467,8.5 0,8.5 C-4.693999767303467,8.5 -8.5,4.693999767303467 -8.5,0 C-8.5,-4.693999767303467 -4.693999767303467,-8.5 0,-8.5z"/></g></g><g transform="matrix(1,0,0,1,1277,585)" opacity="1" style="display: block;"><g opacity="1" transform="matrix(1,0,0,1,39.5,39.5)"><path stroke-linecap="butt" stroke-linejoin="miter" fill-opacity="0" stroke-miterlimit="4" stroke="rgb(64,105,235)" stroke-opacity="1" stroke-width="2" d=" M0,-37.5 C20.711000442504883,-37.5 37.5,-20.711000442504883 37.5,0 C37.5,20.711000442504883 20.711000442504883,37.5 0,37.5 C-20.711000442504883,37.5 -37.5,20.711000442504883 -37.5,0 C-37.5,-20.711000442504883 -20.711000442504883,-37.5 0,-37.5z"/></g></g><g transform="matrix(1,0,0,1,605,196)" opacity="1" style="display: block;"><g opacity="1" transform="matrix(1,0,0,1,6,6)"><path stroke-linecap="butt" stroke-linejoin="miter" fill-opacity="0" stroke-miterlimit="4" stroke="rgb(255,255,255)" stroke-opacity="1" stroke-width="2" d=" M0,-4 C2.2090001106262207,-4 4,-2.2090001106262207 4,0 C4,2.2090001106262207 2.2090001106262207,4 0,4 C-2.2090001106262207,4 -4,2.2090001106262207 -4,0 C-4,-2.2090001106262207 -2.2090001106262207,-4 0,-4z"/></g></g><g transform="matrix(1,0,0,1,650,196)" opacity="1" style="display: block;"><g opacity="1" transform="matrix(1,0,0,1,6,6)"><path stroke-linecap="butt" stroke-linejoin="miter" fill-opacity="0" stroke-miterlimit="4" stroke="rgb(255,255,255)" stroke-opacity="1" stroke-width="2" d=" M0,-4 C2.2090001106262207,-4 4,-2.2090001106262207 4,0 C4,2.2090001106262207 2.2090001106262207,4 0,4 C-2.2090001106262207,4 -4,2.2090001106262207 -4,0 C-4,-2.2090001106262207 -2.2090001106262207,-4 0,-4z"/></g></g><g transform="matrix(1,0,0,1,605,212)" opacity="1" style="display: block;"><g opacity="1" transform="matrix(1,0,0,1,6,6)"><path stroke-linecap="butt" stroke-linejoin="miter" fill-opacity="0" stroke-miterlimit="4" stroke="rgb(255,255,255)" stroke-opacity="1" stroke-width="2" d=" M0,-4 C2.2090001106262207,-4 4,-2.2090001106262207 4,0 C4,2.2090001106262207 2.2090001106262207,4 0,4 C-2.2090001106262207,4 -4,2.2090001106262207 -4,0 C-4,-2.2090001106262207 -2.2090001106262207,-4 0,-4z"/></g></g><g transform="matrix(1,0,0,1,650,212)" opacity="1" style="display: block;"><g opacity="1" transform="matrix(1,0,0,1,6,6)"><path stroke-linecap="butt" stroke-linejoin="miter" fill-opacity="0" stroke-miterlimit="4" stroke="rgb(255,255,255)" stroke-opacity="1" stroke-width="2" d=" M0,-4 C2.2090001106262207,-4 4,-2.2090001106262207 4,0 C4,2.2090001106262207 2.2090001106262207,4 0,4 C-2.2090001106262207,4 -4,2.2090001106262207 -4,0 C-4,-2.2090001106262207 -2.2090001106262207,-4 0,-4z"/></g></g><g transform="matrix(1,0,0,1,605,228)" opacity="1" style="display: block;"><g opacity="1" transform="matrix(1,0,0,1,6,6)"><path stroke-linecap="butt" stroke-linejoin="miter" fill-opacity="0" stroke-miterlimit="4" stroke="rgb(255,255,255)" stroke-opacity="1" stroke-width="2" d=" M0,-4 C2.2090001106262207,-4 4,-2.2090001106262207 4,0 C4,2.2090001106262207 2.2090001106262207,4 0,4 C-2.2090001106262207,4 -4,2.2090001106262207 -4,0 C-4,-2.2090001106262207 -2.2090001106262207,-4 0,-4z"/></g></g><g transform="matrix(1,0,0,1,650,228)" opacity="1" style="display: block;"><g opacity="1" transform="matrix(1,0,0,1,6,6)"><path stroke-linecap="butt" stroke-linejoin="miter" fill-opacity="0" stroke-miterlimit="4" stroke="rgb(255,255,255)" stroke-opacity="1" stroke-width="2" d=" M0,-4 C2.2090001106262207,-4 4,-2.2090001106262207 4,0 C4,2.2090001106262207 2.2090001106262207,4 0,4 C-2.2090001106262207,4 -4,2.2090001106262207 -4,0 C-4,-2.2090001106262207 -2.2090001106262207,-4 0,-4z"/></g></g><g transform="matrix(1,0,0,1,966.5009765625,382.75)" opacity="1" style="display: block;"><g opacity="1" transform="matrix(1,0,0,1,0,0)"><path stroke-linecap="butt" stroke-linejoin="miter" fill-opacity="0" stroke-miterlimit="4" stroke="rgb(255,255,255)" stroke-opacity="1" stroke-width="2.5" d="M0 0"/></g></g><g transform="matrix(1,0,0,1,966.5009765625,382.75)" opacity="1" style="display: block;"><g opacity="1" transform="matrix(1,0,0,1,0,0)"><path stroke-linecap="butt" stroke-linejoin="miter" fill-opacity="0" stroke-miterlimit="4" stroke="rgb(255,255,255)" stroke-opacity="1" stroke-width="2.5" d=" M-321.0010070800781,-166.90699768066406 C-317.07000732421875,-165.18299865722656 -314.375,-164 -314.375,-164"/></g></g><g transform="matrix(1,0,0,1,966.5009765625,382.75)" opacity="1" style="display: block;"><g opacity="1" transform="matrix(1,0,0,1,0,0)"><path stroke-linecap="butt" stroke-linejoin="miter" fill-opacity="0" stroke-miterlimit="4" stroke="rgb(255,255,255)" stroke-opacity="1" stroke-width="2.5" d=" M-316.15399169921875,-149.7689971923828 C-315.4930114746094,-149.19400024414062 -315.125,-148.875 -315.125,-148.875"/></g></g><g transform="matrix(1,0,0,1,966.5009765625,398.25)" opacity="1" style="display: block;"><g opacity="1" transform="matrix(1,0,0,1,0,0)"><path stroke-linecap="butt" stroke-linejoin="miter" fill-opacity="0" stroke-miterlimit="4" stroke="rgb(255,255,255)" stroke-opacity="1" stroke-width="2.5" d=" M-349.9159851074219,-180.125 C-343.9440002441406,-180.125 -317.7829895019531,-180.125 -315.2049865722656,-180.125"/></g></g><g transform="matrix(1,0,0,1,966.5009765625,398.25)" opacity="1" style="display: block;"><g opacity="1" transform="matrix(1,0,0,1,0,0)"><path stroke-linecap="butt" stroke-linejoin="miter" fill-opacity="0" stroke-miterlimit="4" stroke="rgb(255,255,255)" stroke-opacity="1" stroke-width="2.5" d=" M-338.6520080566406,-185.45799255371094 C-328.3009948730469,-189.88400268554688 -315.2170104980469,-195.47900390625 -314.8819885253906,-195.6219940185547"/></g></g><g transform="matrix(1,0,0,1,966.5009765625,398.25)" opacity="1" style="display: block;"><g opacity="1" transform="matrix(1,0,0,1,0,0)"><path stroke-linecap="butt" stroke-linejoin="miter" fill-opacity="0" stroke-miterlimit="4" stroke="rgb(255,255,255)" stroke-opacity="1" stroke-width="2.5" d="M0 0"/></g></g><g transform="matrix(1,0,0,1,966.5009765625,414.375)" opacity="1" style="display: block;"><g opacity="1" transform="matrix(1,0,0,1,0,0)"><path stroke-linecap="butt" stroke-linejoin="miter" fill-opacity="0" stroke-miterlimit="4" stroke="rgb(255,255,255)" stroke-opacity="1" stroke-width="2.5" d=" M-346.3999938964844,-180.125 C-336.9360046386719,-180.125 -316.43701171875,-180.125 -315.0719909667969,-180.125"/></g></g><g transform="matrix(1,0,0,1,966.5009765625,414.375)" opacity="1" style="display: block;"><g opacity="1" transform="matrix(1,0,0,1,0,0)"><path stroke-linecap="butt" stroke-linejoin="miter" fill-opacity="0" stroke-miterlimit="4" stroke="rgb(255,255,255)" stroke-opacity="1" stroke-width="2.5" d=" M-314.635009765625,-195.62100219726562 C-314.62799072265625,-195.62399291992188 -314.625,-195.625 -314.625,-195.625"/></g></g><g transform="matrix(1,0,0,1,966.5009765625,414.375)" opacity="1" style="display: block;"><g opacity="1" transform="matrix(1,0,0,1,0,0)"><path stroke-linecap="butt" stroke-linejoin="miter" fill-opacity="0" stroke-miterlimit="4" stroke="rgb(255,255,255)" stroke-opacity="1" stroke-width="2.5" d=" M-331.6839904785156,-196.9239959716797 C-323.2439880371094,-204.21800231933594 -315.25,-211.125 -315.25,-211.125"/></g></g></g></svg>