<?xml version="1.0" encoding="utf-8"?>
<!-- Generator: Adobe Illustrator 27.4.0, SVG Export Plug-In . SVG Version: 6.00 Build 0)  -->
<svg version="1.1" id="Capa_1" xmlns="http://www.w3.org/2000/svg" xmlns:xlink="http://www.w3.org/1999/xlink" x="0px" y="0px"
	 viewBox="0 0 766.9 307.8" style="enable-background:new 0 0 766.9 307.8;" xml:space="preserve">
<style type="text/css">
	.st0{fill:none;stroke:#000000;stroke-width:17.0115;stroke-linecap:round;stroke-miterlimit:10;}
	.st1{fill:#020203;}
	.st2{fill:none;stroke:#000000;stroke-width:18.7803;stroke-linecap:round;stroke-miterlimit:10;}
	.st3{fill:none;stroke:#000000;stroke-width:28.9902;stroke-linecap:round;stroke-miterlimit:10;}
</style>
<g>
	<g>
		<path d="M211.7,168.2c-12.1,35.6-56,48.7-85.2,24.7c-26.3-22.3-24.6-63.1,4.3-82.3c7.6-4.9,16.5-7.7,25.4-8c1.5,0,2.8,1.2,2.9,2.7
			c0,1.5-1.1,2.7-2.5,2.9c-19.2,1.4-35.8,16.9-38.5,35.8c-1.5,9.7,0.5,20,5.8,28.3c0,0,1.5,2.3,1.5,2.3c0.8,1.1,1.8,2.2,2.6,3.2
			c0.6,0.7,2.2,2.2,2.9,2.9c1.4,1.1,2.8,2.4,4.3,3.4c0,0,2.3,1.5,2.3,1.5l2.4,1.3c14.6,7.5,32.8,4.9,44.7-6.4
			c5.1-4.8,8.7-10.9,10.5-17.5c1.3-4.6,6.1-7.3,10.7-6.1C210.7,158.3,213.4,163.5,211.7,168.2L211.7,168.2z"/>
		<path d="M242.4,167c-7,39.6-44.2,69.7-84.4,67.9c-39.5-0.8-74.3-32.4-78.6-71.6c-7.7-61.7,55.9-109,112.4-82.8
			c12.6,5.9,23.7,15,31.6,26.5c2.6,3.8,4.9,7.8,6.9,12c0.6,1.4,0,3-1.4,3.7c-1.4,0.6-3,0-3.6-1.3c-1.9-3.8-4.1-7.5-6.7-10.9
			C173.8,51.4,81.4,88,90.8,161.7c4.5,33,34.3,59,67.6,58.8c24.1,0.4,47.6-13.3,59.2-34.3c3.9-6.9,6.5-14.5,7.8-22.3
			C227.8,152.5,244.2,155.5,242.4,167L242.4,167z"/>
		<path d="M268.9,166.5c-10.3,73.4-88.6,115.9-155.5,83.6C63,226.4,39.1,163.8,61,112.6c20.3-51.1,80.6-78.5,132.3-60
			c37.8,12.5,66.3,48.3,70.2,87.8c0.3,3.8-5.2,4.4-5.7,0.7c-4.4-37.1-31.4-69.9-67-81C143.3,44,88.6,69.7,70.9,116.6
			c-18.7,45.8,3.2,101.1,48.3,121.3c32.6,15.4,72.6,10.2,100.1-13.2c13.6-11.3,23.7-26.5,29-43.3c1.7-5.6,3-11.4,3.7-17.3
			c0.6-4.7,4.9-8,9.5-7.4C266.3,157.4,269.6,161.8,268.9,166.5L268.9,166.5z"/>
	</g>
	<g>
		<path class="st1" d="M388.6,145.5v43.4h-10l-0.9-13.8c-5.6,9.3-15.2,15.2-28.8,15.2c-23.9,0-41.4-18.3-41.4-40.6
			c0-24.8,18.7-42.2,42-42.2c17.3,0,33.7,9.5,38.4,28.6h-13.5c-4.1-12.3-15.3-16.8-24.7-16.8c-16.8,0-29.4,12.3-29.4,30.5
			c0,15.4,11.5,28.7,28.6,28.7c14.1,0,23.2-8.9,26-21.2h-26.9v-11.8H388.6z"/>
		<path class="st1" d="M458.9,164.9h-43.4c1.2,8.3,6.5,14.7,16.8,14.7c5.4,0,9.5-1.6,11.8-5.2h13.4c-3.5,10-13.3,15.9-25.3,15.9
			c-17.4,0-29.2-12.6-29.2-29c0-16.3,11.6-29,28.5-29C449.9,132.2,461.3,146.2,458.9,164.9z M415.8,156.4h31
			c-0.7-9.1-6.6-13.9-15.2-13.9C422.5,142.6,417.2,148.7,415.8,156.4z"/>
		<path class="st1" d="M526.4,158.1v30.8h-12.2v-30.1c0-10.1-5.4-15.5-14.3-15.5c-5.3,0-11.1,2.9-15.4,8.3v37.3h-12.2v-55.3h12.2
			v4.9c4.8-4.1,10.8-6.3,17.9-6.3C516.6,132.2,526.4,142.1,526.4,158.1z"/>
		<path class="st1" d="M594.9,164.9h-43.4c1.2,8.3,6.5,14.7,16.8,14.7c5.4,0,9.5-1.6,11.8-5.2h13.4c-3.5,10-13.3,15.9-25.3,15.9
			c-17.4,0-29.2-12.6-29.2-29c0-16.3,11.6-29,28.5-29C585.9,132.2,597.3,146.2,594.9,164.9z M551.8,156.4h31
			c-0.7-9.1-6.6-13.9-15.2-13.9C558.5,142.6,553.2,148.7,551.8,156.4z"/>
		<path class="st1" d="M640.9,132.5V144c-8.8,0.4-15.5,3.6-20.5,10.1v34.8h-12.2v-55.3h12.2v7.5
			C625.5,135.6,632.4,132.5,640.9,132.5z"/>
		<path class="st1" d="M705.6,133.6v55.3h-12.1v-4.4c-4.7,3.6-10.7,5.8-17.8,5.8c-15.5,0-28-12.9-28-29s12.5-29,28-29
			c7.1,0,13,2.1,17.8,5.8v-4.4H705.6z M693.4,171.3v-20c-4.1-5.9-9.9-8-16-8c-10.1,0-17.5,8.1-17.5,18c0,9.9,7.4,18,17.5,18
			C683.6,179.3,689.3,177.1,693.4,171.3z"/>
	</g>
</g>
</svg>
